<svg width="345" height="47" viewBox="0 0 345 47" fill="none" xmlns="http://www.w3.org/2000/svg">
<g clip-path="url(#clip0_344_121)">
<path d="M27.255 5.81648C25.7672 3.22898 22.4466 3.25054 20.9372 5.8596C14.145 17.6327 7.37442 29.4059 0.539107 41.1574C-0.970268 43.7665 0.840982 46.7852 3.79504 46.7205C10.5657 46.6127 17.3363 46.6774 24.1069 46.6774C30.8775 46.6774 37.7344 46.6774 44.5482 46.6559C45.2813 46.6559 46.1007 46.4402 46.7044 46.0521C48.3647 45.0171 48.7097 43.0118 47.6532 41.179C40.861 29.3843 34.0688 17.6112 27.255 5.83804V5.81648ZM44.4404 45.4484C37.6482 45.3837 30.8775 45.4268 24.0854 45.4268C17.3363 45.4268 10.6088 45.4268 3.85973 45.4268C2.41504 45.4268 1.48786 44.823 1.31536 43.5724C1.22911 43.0118 1.40161 42.3434 1.68192 41.8474C4.93786 36.1549 8.21536 30.484 11.4929 24.7915C14.986 18.754 18.4575 12.6949 21.9507 6.65742C23.115 4.6521 25.1204 4.6521 26.2632 6.65742C33.0122 18.3659 39.7613 30.0743 46.5535 41.7396C47.61 43.5293 46.4025 45.4699 44.4404 45.4484V45.4484Z" fill="#C2C2C2"/>
<path d="M25.0125 39.8419C24.9047 36.5213 24.7969 33.2007 24.7107 29.8801C24.6675 28.4785 24.7107 27.0769 24.7322 25.6754C24.7322 25.3304 24.9047 25.201 25.2497 25.2657C25.4653 25.2872 25.7025 25.2657 25.8966 25.3304C27.8588 25.8694 29.7778 25.7185 31.6753 25.0716C32.3438 24.8344 33.0122 24.9207 33.6591 25.2872C33.616 25.4813 33.5944 25.6538 33.5513 25.8047C32.5594 29.4919 31.5675 33.2007 30.5972 36.8879C30.3385 37.8582 30.5972 38.4619 31.4166 39.0226C32.8182 39.9497 35.2763 39.9066 36.6347 38.9363C37.3894 38.4188 37.5835 37.8151 37.3463 36.931C36.8503 35.0766 36.3544 33.2438 35.8585 31.3894C35.3194 29.3841 34.7803 27.3572 34.306 25.5029C34.5647 25.201 34.8666 24.9854 34.845 24.7913C34.8235 24.5757 34.5216 24.3816 34.3275 24.2091C34.2413 24.1229 34.0903 24.0797 33.961 24.1013C32.9475 24.166 31.891 24.1013 30.8991 24.3601C28.7644 24.8991 26.716 24.4894 24.5166 24.0797C25.0125 22.2901 25.4869 20.5004 24.1069 18.8832C23.2444 20.1769 22.921 21.5354 23.5032 23.0447C23.6325 23.3466 23.611 23.7132 23.6541 24.1013C21.4978 24.3601 19.4925 24.9422 17.3578 24.3601C16.3444 24.0797 15.2447 24.1444 14.1666 24.1444C13.9078 24.1444 13.5413 24.4679 13.4335 24.7482C13.3688 24.8991 13.6922 25.2226 13.9294 25.5676C13.9294 25.5244 13.9294 25.6322 13.8863 25.7401C12.8944 29.4272 11.9025 33.136 10.9107 36.8232C10.6303 37.8797 10.846 38.5266 11.7947 39.0441C13.4766 39.9713 15.18 39.9066 16.8403 39.001C17.6813 38.5266 17.8969 37.8582 17.6597 36.9094C17.1422 34.9257 16.6032 32.9635 16.0857 30.9797C15.5682 29.0822 15.0722 27.1632 14.5547 25.2657C15.3957 24.7697 16.215 24.8776 17.0344 25.1579C18.436 25.6322 19.8591 25.7832 21.3253 25.5244C22.0153 25.4166 22.6838 25.2872 23.5678 25.1579C23.7188 30.2897 23.2875 35.2707 23.2228 40.2947H7.74097V41.2004H23.266C23.266 41.2004 23.3522 41.3298 23.3738 41.416C22.576 42.1707 21.7782 42.9254 20.9157 43.7663H27.2982C26.4572 42.9038 25.681 42.1276 24.9047 41.3513C24.9263 41.3082 24.9694 41.2435 24.991 41.2004H40.516V40.2732H25.0557C25.0557 40.1222 25.0125 40.0144 25.0125 39.9066V39.8419ZM33.9178 39.3244C32.3869 39.3244 31.2225 38.6991 30.9422 37.7288H37.0228C36.721 38.7422 35.535 39.3244 33.9178 39.3244V39.3244ZM34.0472 25.8694C35.0607 29.6644 36.0741 33.4379 37.1091 37.2976H34.8666C34.8882 36.931 34.9097 36.6291 34.9313 36.241C34.651 36.1979 34.4138 36.1547 34.0688 36.0901V33.9769C34.0688 33.9769 33.9394 33.9769 33.8747 33.9769V36.0901C33.5297 36.1332 33.2925 36.1763 32.9475 36.2194C32.9907 36.5644 33.0122 36.8879 33.0553 37.276H30.8128C31.8263 33.4594 32.8397 29.6644 33.8532 25.8694C33.8963 25.8694 33.961 25.8694 34.0041 25.8479L34.0472 25.8694ZM14.3391 39.3244C12.7435 39.3244 11.536 38.7422 11.2125 37.7288H17.3147C17.0344 38.6991 15.8916 39.3029 14.3391 39.3244V39.3244ZM17.401 37.276H15.18C15.18 36.9526 15.2232 36.6076 15.2447 36.241C14.9644 36.1979 14.7488 36.1547 14.3822 36.1116V33.9769C14.3822 33.9769 14.2528 33.9769 14.1666 33.9769V36.1116C13.7785 36.1547 13.5628 36.1763 13.261 36.2194C13.3041 36.586 13.3257 36.931 13.3688 37.2976H11.1263C12.1613 33.4594 13.1747 29.6644 14.1882 25.8694C14.2313 25.8694 14.2744 25.8694 14.3391 25.8694C15.3525 29.6429 16.366 33.4379 17.401 37.2976V37.276ZM26.0475 43.2488H22.3388C22.921 42.6666 23.5678 42.0413 24.1716 41.4591C24.7322 41.9982 25.3791 42.6019 26.0475 43.2488V43.2488Z" fill="#C2C2C2"/>
<path d="M146.776 11.7245L128.146 30.5485H135.261L138.237 27.1848H154.948L158.225 30.6348H165.729L146.797 11.7029L146.776 11.7245ZM142.636 23.2604L146.905 18.8401L151.088 23.2604H142.636V23.2604Z" fill="#C2C2C2"/>
<path d="M168.597 30.5485H175.713L178.688 27.1848H195.399L198.677 30.6348H206.181L187.249 11.7029L168.619 30.527L168.597 30.5485ZM191.561 23.2388H183.109L187.378 18.8185L191.561 23.2388Z" fill="#C2C2C2"/>
<path d="M114.087 27.1848L117.343 30.6348H124.847L105.915 11.7029L87.2849 30.527H94.4005L97.3762 27.1632H114.087V27.1848ZM106.066 18.8185L110.249 23.2388H101.796L106.066 18.8185V18.8185Z" fill="#C2C2C2"/>
<path d="M238.956 22.592C241.953 22.592 244.389 20.1554 244.389 17.1582C244.389 14.161 241.953 11.7245 238.956 11.7245H209.135V30.6563H215.086V22.592H231.905L237.576 30.6563H244.389L238.956 22.592ZM236.994 18.8401H214.806V15.196H236.994C238.007 15.196 238.826 16.0154 238.826 17.0288C238.826 18.0423 238.007 18.8617 236.994 18.8617V18.8401Z" fill="#C2C2C2"/>
<path d="M280.808 25.6538H253.898V23.2604H280.808V18.8401H253.898V16.4251H280.808V11.7245H248.335V30.6563H280.808V25.6538Z" fill="#C2C2C2"/>
<path d="M309.767 23.627L299.482 11.7245L285.854 30.6563H291.805L299.568 19.6595L309.767 30.6563L319.966 19.6595L327.729 30.6563H333.68L320.052 11.7245L309.767 23.627Z" fill="#C2C2C2"/>
<path d="M73.6574 30.9798C78.1424 30.9798 82.304 29.9879 85.3874 28.1767L83.1233 24.317C80.7515 25.697 77.3015 26.4948 73.6359 26.4948C66.7359 26.4948 61.5824 23.6917 61.5824 21.1904C61.5824 18.6892 66.7359 15.8861 73.6359 15.8861C77.2368 15.8861 80.6652 16.6623 83.0371 18.0207L85.258 14.1395C82.1962 12.3714 78.0562 11.4226 73.6359 11.4226C64.213 11.4226 57.0974 15.6273 57.0974 21.212C57.0974 26.7967 64.213 31.0014 73.6359 31.0014L73.6574 30.9798Z" fill="#C2C2C2"/>
<path d="M59.4692 37.7938C60.073 37.7938 60.4827 38.0956 60.6336 38.6778H61.3021C61.1727 37.7075 60.4611 37.19 59.4692 37.19C58.2186 37.19 57.3777 38.0525 57.3777 39.5403C57.3777 41.0281 58.2186 41.8906 59.4692 41.8906C60.4611 41.8906 61.1727 41.3731 61.3021 40.4028H60.6336C60.4827 41.0066 60.073 41.3084 59.4692 41.3084C58.5852 41.3084 58.0892 40.64 58.0892 39.5403C58.0892 38.4406 58.6067 37.7722 59.4692 37.7722V37.7938Z" fill="#C2C2C2"/>
<path d="M63.9115 37.2111C62.6608 37.2111 61.7983 38.0951 61.7983 39.5614C61.7983 41.0276 62.6608 41.9117 63.9115 41.9117C65.1621 41.9117 66.0246 41.0276 66.0246 39.5614C66.0246 38.0951 65.1621 37.2111 63.9115 37.2111ZM63.9115 41.3295C63.0705 41.3295 62.4883 40.6826 62.4883 39.5614C62.4883 38.4401 63.049 37.7933 63.9115 37.7933C64.774 37.7933 65.3346 38.4401 65.3346 39.5614C65.3346 40.6826 64.774 41.3295 63.9115 41.3295Z" fill="#C2C2C2"/>
<path d="M69.6468 40.7907H69.6253L67.3828 37.276H66.6497V41.8473H67.3397V38.3757L69.5606 41.8473H70.3368V37.276H69.6468V40.7907Z" fill="#C2C2C2"/>
<path d="M71.0916 41.8473H71.7816V39.8635H73.6575V39.2814H71.7816V37.8582H74.0456V37.276H71.0916V41.8473Z" fill="#C2C2C2"/>
<path d="M75.2962 39.7773H77.3878V39.2382H75.2962V37.8582H77.6034V37.276H74.6062V41.8473H77.6681V41.2651H75.2962V39.7773Z" fill="#C2C2C2"/>
<path d="M79.8028 37.276H78.2288V41.8689H79.8028C81.2475 41.8689 81.9591 41.071 81.9591 39.5832C81.9591 38.0954 81.2259 37.2976 79.8028 37.2976V37.276ZM79.7381 41.2651H78.9188V37.8798H79.7381C80.8163 37.8798 81.2691 38.3973 81.2691 39.5832C81.2691 40.7692 80.7947 41.2867 79.7381 41.2867V41.2651Z" fill="#C2C2C2"/>
<path d="M83.2744 39.7773H85.3875V39.2382H83.2744V37.8582H85.5816V37.276H82.606V41.8473H85.6463V41.2651H83.2744V39.7773Z" fill="#C2C2C2"/>
<path d="M89.6136 38.7207C89.6136 37.8151 89.053 37.276 87.9533 37.276H86.2283V41.8689H86.9183V40.187H87.9964L88.9883 41.8689H89.6783L88.6433 40.1007C89.3117 39.9282 89.6351 39.4323 89.6351 38.7423L89.6136 38.7207ZM87.9317 39.5617H86.9183V37.8582H87.9317C88.5786 37.8582 88.9236 38.1601 88.9236 38.7207C88.9236 39.2814 88.6001 39.5617 87.9317 39.5617Z" fill="#C2C2C2"/>
<path d="M91.684 37.276L89.959 41.8689H90.6705L91.0587 40.8123H93.1502L93.5384 41.8689H94.2499L92.5249 37.276H91.684ZM91.2527 40.2948L92.0937 37.9876H92.1368L92.9777 40.2948H91.2743H91.2527Z" fill="#C2C2C2"/>
<path d="M96.4922 37.7938C97.0959 37.7938 97.5056 38.0956 97.6566 38.6778H98.325C98.1956 37.7075 97.4841 37.19 96.4922 37.19C95.2416 37.19 94.4006 38.0525 94.4006 39.5403C94.4006 41.0281 95.2416 41.8906 96.4922 41.8906C97.4841 41.8906 98.1956 41.3731 98.325 40.4028H97.6566C97.5056 41.0066 97.0959 41.3084 96.4922 41.3084C95.6081 41.3084 95.1122 40.64 95.1122 39.5403C95.1122 38.4406 95.6297 37.7722 96.4922 37.7722V37.7938Z" fill="#C2C2C2"/>
<path d="M99.5755 37.276H98.8855V41.8689H99.5755V37.276Z" fill="#C2C2C2"/>
<path d="M102.53 36.8664L103.177 35.9823H102.573L101.926 36.8664H102.53Z" fill="#C2C2C2"/>
<path d="M102.314 37.2111C101.063 37.2111 100.201 38.0951 100.201 39.5614C100.201 41.0276 101.063 41.9117 102.314 41.9117C103.565 41.9117 104.427 41.0276 104.427 39.5614C104.427 38.0951 103.565 37.2111 102.314 37.2111ZM102.314 41.3295C101.473 41.3295 100.891 40.6826 100.891 39.5614C100.891 38.4401 101.452 37.7933 102.314 37.7933C103.177 37.7933 103.737 38.4401 103.737 39.5614C103.737 40.6826 103.177 41.3295 102.314 41.3295Z" fill="#C2C2C2"/>
<path d="M108.071 40.7907H108.05L105.807 37.276H105.074V41.8473H105.742V38.3757H105.764L107.985 41.8473H108.74V37.276H108.071V40.7907Z" fill="#C2C2C2"/>
<path d="M112.556 37.276H110.982V41.8689H112.556C114.001 41.8689 114.712 41.071 114.712 39.5832C114.712 38.0954 113.979 37.2976 112.556 37.2976V37.276ZM112.492 41.2651H111.672V37.8798H112.492C113.57 37.8798 114.022 38.3973 114.022 39.5832C114.022 40.7692 113.548 41.2867 112.492 41.2867V41.2651Z" fill="#C2C2C2"/>
<path d="M116.028 39.7773H118.141V39.2382H116.028V37.8582H118.335V37.276H115.359V41.8473H118.4V41.2651H116.028V39.7773Z" fill="#C2C2C2"/>
<path d="M121.979 37.276L120.254 41.8689H120.966L121.354 40.8123H123.445L123.834 41.8689H124.545L122.82 37.276H121.979ZM121.548 40.2948L122.389 37.9876H122.432L123.273 40.2948H121.569H121.548Z" fill="#C2C2C2"/>
<path d="M127.003 39.2813L126.4 39.1735C125.904 39.0872 125.666 38.8501 125.666 38.4835C125.666 38.0738 125.968 37.7935 126.594 37.7935C127.219 37.7935 127.564 38.0738 127.564 38.5051H128.254C128.254 37.7072 127.607 37.2329 126.572 37.2329C125.537 37.2329 124.955 37.7072 124.955 38.4835C124.955 39.1519 125.386 39.5616 126.227 39.7126L126.852 39.8419C127.391 39.9497 127.672 40.1654 127.672 40.575C127.672 41.0494 127.327 41.3513 126.637 41.3513C125.904 41.3513 125.537 41.0063 125.515 40.4672H124.825C124.825 41.3513 125.494 41.9119 126.637 41.9119C127.715 41.9119 128.383 41.4375 128.383 40.5535C128.383 39.8419 127.93 39.4754 127.003 39.2813V39.2813Z" fill="#C2C2C2"/>
<path d="M131.035 37.2111C129.785 37.2111 128.922 38.0951 128.922 39.5614C128.922 41.0276 129.785 41.9117 131.035 41.9117C132.286 41.9117 133.148 41.0276 133.148 39.5614C133.148 38.0951 132.286 37.2111 131.035 37.2111ZM131.035 41.3295C130.194 41.3295 129.612 40.6826 129.612 39.5614C129.612 38.4401 130.173 37.7933 131.035 37.7933C131.898 37.7933 132.458 38.4401 132.458 39.5614C132.458 40.6826 131.898 41.3295 131.035 41.3295Z" fill="#C2C2C2"/>
<path d="M135.779 37.7938C136.383 37.7938 136.792 38.0956 136.943 38.6778H137.612C137.482 37.7075 136.771 37.19 135.779 37.19C134.528 37.19 133.688 38.0525 133.688 39.5403C133.688 41.0281 134.528 41.8906 135.779 41.8906C136.771 41.8906 137.482 41.3731 137.612 40.4028H136.943C136.792 41.0066 136.383 41.3084 135.779 41.3084C134.895 41.3084 134.399 40.64 134.399 39.5403C134.399 38.4406 134.917 37.7722 135.779 37.7722V37.7938Z" fill="#C2C2C2"/>
<path d="M138.884 37.276H138.194V41.8689H138.884V37.276Z" fill="#C2C2C2"/>
<path d="M141.083 37.276L139.358 41.8689H140.07L140.458 40.8123H142.55L142.938 41.8689H143.649L141.924 37.276H141.083V37.276ZM140.652 40.2948L141.493 37.9876H141.536L142.377 40.2948H140.674H140.652Z" fill="#C2C2C2"/>
<path d="M145.892 37.7938C146.496 37.7938 146.905 38.0956 147.056 38.6778H147.725C147.595 37.7075 146.884 37.19 145.892 37.19C144.641 37.19 143.8 38.0525 143.8 39.5403C143.8 41.0281 144.641 41.8906 145.892 41.8906C146.884 41.8906 147.595 41.3731 147.725 40.4028H147.056C146.905 41.0066 146.496 41.3084 145.892 41.3084C145.008 41.3084 144.512 40.64 144.512 39.5403C144.512 38.4406 145.029 37.7722 145.892 37.7722V37.7938Z" fill="#C2C2C2"/>
<path d="M148.997 37.276H148.307V41.8689H148.997V37.276Z" fill="#C2C2C2"/>
<path d="M151.735 37.2111C150.485 37.2111 149.622 38.0951 149.622 39.5614C149.622 41.0276 150.485 41.9117 151.735 41.9117C152.986 41.9117 153.848 41.0276 153.848 39.5614C153.848 38.0951 152.986 37.2111 151.735 37.2111ZM151.735 41.3295C150.894 41.3295 150.312 40.6826 150.312 39.5614C150.312 38.4401 150.873 37.7933 151.735 37.7933C152.598 37.7933 153.158 38.4401 153.158 39.5614C153.158 40.6826 152.598 41.3295 151.735 41.3295Z" fill="#C2C2C2"/>
<path d="M157.471 40.7907H157.449L155.207 37.276H154.474V41.8473H155.164V38.3757L157.385 41.8473H158.139V37.276H157.471V40.7907Z" fill="#C2C2C2"/>
<path d="M159.606 39.7773H161.697V39.2382H159.606V37.8582H161.913V37.276H158.916V41.8473H161.977V41.2651H159.606V39.7773Z" fill="#C2C2C2"/>
<path d="M164.608 39.2813L164.004 39.1735C163.509 39.0872 163.271 38.8501 163.271 38.4835C163.271 38.0738 163.573 37.7935 164.199 37.7935C164.824 37.7935 165.169 38.0738 165.169 38.5051H165.859C165.859 37.7072 165.212 37.2329 164.177 37.2329C163.142 37.2329 162.56 37.7072 162.56 38.4835C162.56 39.1519 162.991 39.5616 163.832 39.7126L164.457 39.8419C164.996 39.9497 165.277 40.1654 165.277 40.575C165.277 41.0494 164.932 41.3513 164.242 41.3513C163.509 41.3513 163.142 41.0063 163.12 40.4672H162.43C162.43 41.3513 163.099 41.9119 164.242 41.9119C165.32 41.9119 165.988 41.4375 165.988 40.5535C165.988 39.8419 165.535 39.4754 164.608 39.2813V39.2813Z" fill="#C2C2C2"/>
<path d="M169.718 37.276H168.144V41.8689H169.718C171.163 41.8689 171.875 41.071 171.875 39.5832C171.875 38.0954 171.141 37.2976 169.718 37.2976V37.276ZM169.654 41.2651H168.834V37.8798H169.654C170.732 37.8798 171.185 38.3973 171.185 39.5832C171.185 40.7692 170.71 41.2867 169.654 41.2867V41.2651Z" fill="#C2C2C2"/>
<path d="M173.19 39.7773H175.303V39.2382H173.19V37.8582H175.497V37.276H172.522V41.8473H175.562V41.2651H173.19V39.7773Z" fill="#C2C2C2"/>
<path d="M179.141 37.276L177.416 41.8689H178.128L178.516 40.8123H180.608L180.996 41.8689H181.707L179.982 37.276H179.141V37.276ZM178.71 40.2948L179.551 37.9876H179.594L180.435 40.2948H178.71Z" fill="#C2C2C2"/>
<path d="M184.144 39.9929H185.2C185.2 40.8769 184.726 41.3297 183.971 41.3297C183.066 41.3297 182.548 40.6613 182.548 39.5616C182.548 38.4619 183.066 37.8151 183.971 37.8151C184.51 37.8151 184.898 38.0522 185.093 38.5482H185.761C185.588 37.6857 184.898 37.2329 183.971 37.2329C182.721 37.2329 181.858 38.0954 181.858 39.5832C181.858 41.071 182.699 41.9335 183.993 41.9335C185.287 41.9335 185.89 41.2219 185.89 39.7772V39.4538H184.165V39.9929H184.144Z" fill="#C2C2C2"/>
<path d="M187.249 39.7773H189.34V39.2382H187.249V37.8582H189.534V37.276H186.559V41.8473H189.599V41.2651H187.249V39.7773Z" fill="#C2C2C2"/>
<path d="M193.179 40.7907H193.157L190.915 37.276H190.181V41.8473H190.85V38.3757H190.871L193.092 41.8473H193.847V37.276H193.179V40.7907Z" fill="#C2C2C2"/>
<path d="M194.386 37.8582H195.809V41.8473H196.478V37.8582H197.901V37.276H194.386V37.8582Z" fill="#C2C2C2"/>
<path d="M199.108 39.7773H201.221V39.2382H199.108V37.8582H201.415V37.276H198.44V41.8473H201.48V41.2651H199.108V39.7773Z" fill="#C2C2C2"/>
<path d="M204.132 39.2813L203.528 39.1735C203.032 39.0872 202.795 38.8501 202.795 38.4835C202.795 38.0738 203.097 37.7935 203.722 37.7935C204.348 37.7935 204.693 38.0738 204.693 38.5051H205.383C205.383 37.7072 204.736 37.2329 203.701 37.2329C202.666 37.2329 202.084 37.7072 202.084 38.4835C202.084 39.1519 202.515 39.5616 203.356 39.7126L203.981 39.8419C204.52 39.9497 204.801 40.1654 204.801 40.575C204.801 41.0494 204.456 41.3513 203.766 41.3513C203.032 41.3513 202.666 41.0063 202.644 40.4672H201.954C201.954 41.3513 202.623 41.9119 203.766 41.9119C204.844 41.9119 205.512 41.4375 205.512 40.5535C205.512 39.8419 205.059 39.4754 204.132 39.2813V39.2813Z" fill="#C2C2C2"/>
<path d="M209.156 37.276L207.431 41.8689H208.143L208.531 40.8123H210.622L211.011 41.8689H211.722L209.997 37.276H209.156V37.276ZM208.725 40.2948L209.566 37.9876H209.609L210.45 40.2948H208.725Z" fill="#C2C2C2"/>
<path d="M213.792 37.276H212.218V41.8689H213.792C215.237 41.8689 215.948 41.071 215.948 39.5832C215.948 38.0954 215.215 37.2976 213.792 37.2976V37.276ZM213.727 41.2651H212.908V37.8798H213.727C214.806 37.8798 215.258 38.3973 215.258 39.5832C215.258 40.7692 214.784 41.2867 213.727 41.2867V41.2651Z" fill="#C2C2C2"/>
<path d="M219.528 40.0792C219.528 40.877 219.118 41.3298 218.406 41.3298C217.695 41.3298 217.285 40.877 217.285 40.0792V37.276H216.595V40.1223C216.595 41.2867 217.285 41.912 218.385 41.912C219.485 41.912 220.196 41.2651 220.196 40.1223V37.276H219.506V40.0792H219.528Z" fill="#C2C2C2"/>
<path d="M222.245 37.276L220.52 41.8689H221.231L221.619 40.8123H223.711L224.099 41.8689H224.811L223.086 37.276H222.245V37.276ZM221.814 40.2948L222.654 37.9876H222.698L223.539 40.2948H221.835H221.814Z" fill="#C2C2C2"/>
<path d="M228.304 40.7907L226.061 37.276H225.328V41.8473H225.997V38.3757H226.018L228.239 41.8473H228.994V37.276H228.304V40.7907Z" fill="#C2C2C2"/>
<path d="M231.236 37.276L229.511 41.8689H230.223L230.611 40.8123H232.702L233.091 41.8689H233.802L232.077 37.276H231.236V37.276ZM230.805 40.2948L231.646 37.9876H231.689L232.53 40.2948H230.805Z" fill="#C2C2C2"/>
<path d="M234.988 37.276H234.32V41.8473H237.252V41.2651H234.988V37.276Z" fill="#C2C2C2"/>
<path d="M238.503 39.7773H240.616V39.2382H238.503V37.8582H240.81V37.276H237.834V41.8473H240.875V41.2651H238.503V39.7773Z" fill="#C2C2C2"/>
<path d="M243.527 39.2813L242.923 39.1735C242.427 39.0872 242.19 38.8501 242.19 38.4835C242.19 38.0738 242.492 37.7935 243.117 37.7935C243.742 37.7935 244.087 38.0738 244.087 38.5051H244.777C244.777 37.7072 244.13 37.2329 243.095 37.2329C242.06 37.2329 241.478 37.7072 241.478 38.4835C241.478 39.1519 241.91 39.5616 242.75 39.7126L243.376 39.8419C243.915 39.9497 244.195 40.1654 244.195 40.575C244.195 41.0494 243.85 41.3513 243.16 41.3513C242.427 41.3513 242.06 41.0063 242.039 40.4672H241.349C241.349 41.3513 242.017 41.9119 243.16 41.9119C244.238 41.9119 244.907 41.4375 244.907 40.5535C244.907 39.8419 244.454 39.4754 243.527 39.2813V39.2813Z" fill="#C2C2C2"/>
<path d="M248.616 37.276H247.042V41.8689H248.616C250.06 41.8689 250.772 41.071 250.772 39.5832C250.772 38.0954 250.039 37.2976 248.616 37.2976V37.276ZM248.551 41.2651H247.732V37.8798H248.551C249.629 37.8798 250.082 38.3973 250.082 39.5832C250.082 40.7692 249.607 41.2867 248.551 41.2867V41.2651Z" fill="#C2C2C2"/>
<path d="M252.109 39.7773H254.2V39.2382H252.109V37.8582H254.394V37.276H251.419V41.8473H254.459V41.2651H252.109V39.7773Z" fill="#C2C2C2"/>
<path d="M257.241 37.276H256.551V41.8473H259.505V41.2651H257.241V37.276Z" fill="#C2C2C2"/>
<path d="M261.553 37.276L259.828 41.8689H260.54L260.928 40.8123H263.019L263.408 41.8689H264.119L262.394 37.276H261.553V37.276ZM261.122 40.2948L261.963 37.9876H262.006L262.847 40.2948H261.143H261.122Z" fill="#C2C2C2"/>
<path d="M269.531 38.7207C269.531 37.8151 268.971 37.276 267.871 37.276H266.146V41.8689H266.836V40.187H267.914L268.906 41.8689H269.596L268.561 40.1007C269.229 39.9282 269.553 39.4323 269.553 38.7423L269.531 38.7207ZM267.849 39.5617H266.836V37.8582H267.849C268.496 37.8582 268.841 38.1601 268.841 38.7207C268.841 39.2814 268.496 39.5617 267.849 39.5617Z" fill="#C2C2C2"/>
<path d="M270.825 39.7773H272.938V39.2382H270.825V37.8582H273.132V37.276H270.156V41.8473H273.197V41.2651H270.825V39.7773Z" fill="#C2C2C2"/>
<path d="M275.504 37.276H273.779V41.8689H274.469V40.187H275.526C276.625 40.187 277.186 39.6479 277.186 38.7423C277.186 37.8367 276.625 37.2976 275.526 37.2976L275.504 37.276ZM275.482 39.5832H274.469V37.8798H275.482C276.129 37.8798 276.474 38.1817 276.474 38.7423C276.474 39.3029 276.129 39.5832 275.482 39.5832V39.5832Z" fill="#C2C2C2"/>
<path d="M280.658 40.0792C280.658 40.877 280.248 41.3298 279.536 41.3298C278.825 41.3298 278.415 40.877 278.415 40.0792V37.276H277.725V40.1223C277.725 41.2867 278.415 41.912 279.515 41.912C280.614 41.912 281.326 41.2651 281.326 40.1223V37.276H280.636V40.0792H280.658Z" fill="#C2C2C2"/>
<path d="M279.709 36.8664L280.356 35.9823H279.752L279.105 36.8664H279.709Z" fill="#C2C2C2"/>
<path d="M284.603 39.346C285.013 39.1951 285.229 38.8717 285.229 38.3973C285.229 37.7073 284.754 37.276 283.806 37.276H282.059V41.8689H283.849C284.948 41.8689 285.531 41.3298 285.531 40.532C285.531 39.9282 285.186 39.5185 284.603 39.346V39.346ZM282.749 37.8582H283.763C284.258 37.8582 284.517 38.0739 284.517 38.4835C284.517 38.8932 284.258 39.1304 283.763 39.1304H282.749V37.8582ZM283.827 41.2867H282.749V39.7126H283.827C284.496 39.7126 284.819 40.0145 284.819 40.4889C284.819 40.9632 284.474 41.2867 283.827 41.2867Z" fill="#C2C2C2"/>
<path d="M286.803 37.276H286.113V41.8473H289.067V41.2651H286.803V37.276Z" fill="#C2C2C2"/>
<path d="M290.318 37.276H289.628V41.8689H290.318V37.276Z" fill="#C2C2C2"/>
<path d="M293.034 37.7938C293.638 37.7938 294.048 38.0956 294.199 38.6778H294.867C294.738 37.7075 294.026 37.19 293.034 37.19C291.784 37.19 290.943 38.0525 290.943 39.5403C290.943 41.0281 291.784 41.8906 293.034 41.8906C294.026 41.8906 294.738 41.3731 294.867 40.4028H294.199C294.048 41.0066 293.638 41.3084 293.034 41.3084C292.15 41.3084 291.654 40.64 291.654 39.5403C291.654 38.4406 292.172 37.7722 293.034 37.7722V37.7938Z" fill="#C2C2C2"/>
<path d="M296.808 37.276L295.083 41.8689H295.794L296.182 40.8123H298.274L298.662 41.8689H299.374L297.649 37.276H296.808V37.276ZM296.376 40.2948L297.217 37.9876H297.261L298.102 40.2948H296.376V40.2948Z" fill="#C2C2C2"/>
<path d="M303.751 40.9417L302.22 37.276H301.379V41.8473H302.069V38.4835H302.091L303.492 41.8473H304.031L305.433 38.4835H305.454V41.8473H306.123V37.276H305.282L303.751 40.9417Z" fill="#C2C2C2"/>
<path d="M307.589 39.7773H309.681V39.2382H307.589V37.8582H309.875V37.276H306.899V41.8473H309.939V41.2651H307.589V39.7773Z" fill="#C2C2C2"/>
<path d="M314.209 37.276H313.433L312.29 38.9364L311.147 37.276H310.392L311.923 39.497L310.284 41.8473H311.061L312.29 40.036L313.54 41.8473H314.295L312.678 39.497L314.209 37.276Z" fill="#C2C2C2"/>
<path d="M315.503 37.276H314.812V41.8689H315.503V37.276Z" fill="#C2C2C2"/>
<path d="M318.219 37.7938C318.823 37.7938 319.233 38.0956 319.384 38.6778H320.052C319.923 37.7075 319.211 37.19 318.219 37.19C316.969 37.19 316.128 38.0525 316.128 39.5403C316.128 41.0281 316.969 41.8906 318.219 41.8906C319.211 41.8906 319.923 41.3731 320.052 40.4028H319.384C319.233 41.0066 318.823 41.3084 318.219 41.3084C317.335 41.3084 316.839 40.64 316.839 39.5403C316.839 38.4406 317.357 37.7722 318.219 37.7722V37.7938Z" fill="#C2C2C2"/>
<path d="M321.971 37.276L320.246 41.8689H320.958L321.346 40.8123H323.438L323.826 41.8689H324.537L322.812 37.276H321.971V37.276ZM321.54 40.2948L322.381 37.9876H322.424L323.265 40.2948H321.562H321.54Z" fill="#C2C2C2"/>
<path d="M328.052 40.7907H328.03L325.788 37.276H325.076V41.8473H325.745V38.3757H325.766L327.987 41.8473H328.742V37.276H328.052V40.7907Z" fill="#C2C2C2"/>
<path d="M330.963 37.276L329.238 41.8689H329.949L330.337 40.8123H332.429L332.817 41.8689H333.529L331.804 37.276H330.963V37.276ZM330.532 40.2948L331.372 37.9876H331.416L332.257 40.2948H330.532V40.2948Z" fill="#C2C2C2"/>
<path d="M337.949 0.361092C334.046 0.361092 330.898 3.53078 330.898 7.41203C330.898 11.2933 334.068 14.463 337.949 14.463C341.83 14.463 345 11.2933 345 7.41203C345 3.53078 341.83 0.361092 337.949 0.361092ZM337.949 13.5573C334.564 13.5573 331.804 10.7973 331.804 7.41203C331.804 4.02672 334.564 1.26672 337.949 1.26672C341.334 1.26672 344.094 4.02672 344.094 7.41203C344.094 10.7973 341.334 13.5573 337.949 13.5573Z" fill="#C2C2C2"/>
<path d="M339.006 7.62787C339.135 7.56318 339.286 7.49849 339.415 7.39068C339.566 7.28287 339.674 7.17505 339.803 7.02412C339.911 6.87318 340.019 6.70068 340.084 6.50662C340.148 6.31255 340.191 6.07537 340.191 5.79505C340.191 5.3638 340.105 5.0188 339.933 4.73849C339.76 4.47974 339.523 4.26412 339.243 4.13474C339.027 4.04849 338.811 3.96224 338.574 3.94068C338.337 3.89755 338.1 3.87599 337.841 3.87599H335.793V10.3663H337.194V7.90818H337.69L338.898 10.3663H340.429L339.049 7.64943V7.6063L339.006 7.62787ZM338.51 6.59287C338.337 6.74381 338.078 6.80849 337.755 6.80849H337.151V4.93255H337.776C338.078 4.93255 338.337 4.99724 338.51 5.12662C338.682 5.25599 338.768 5.49318 338.768 5.85974C338.768 6.2263 338.682 6.44193 338.488 6.59287H338.51Z" fill="#C2C2C2"/>
</g>
<defs>
<clipPath id="clip0_344_121">
<rect width="345" height="46.3594" fill="white" transform="translate(0 0.361084)"/>
</clipPath>
</defs>
</svg>
