<svg width="13" height="23" viewBox="0 0 13 23" fill="none" xmlns="http://www.w3.org/2000/svg">
<path d="M12.5925 6.87125C12.5063 6.76583 12.3721 6.70833 12.2379 6.70833H8.625V5.35708C8.625 5.08875 8.6825 4.78208 9.11375 4.78208H11.9888C12.1133 4.78208 12.2379 4.73417 12.3242 4.63833C12.4104 4.55208 12.4583 4.43708 12.4583 4.3125V0.479167C12.4583 0.210833 12.2475 0 11.9792 0H7.82958C3.22958 0 2.875 3.92917 2.875 5.12708V6.70833H0.479167C0.210833 6.70833 0 6.91917 0 7.1875V11.0208C0 11.2892 0.210833 11.5 0.479167 11.5H2.875V22.5208C2.875 22.7892 3.08583 23 3.35417 23H8.14583C8.41417 23 8.625 22.7892 8.625 22.5208V11.5H11.8354C12.0846 11.5 12.2858 11.3179 12.3146 11.0687L12.7171 7.23542C12.7267 7.10125 12.6883 6.96708 12.5925 6.87125V6.87125Z" fill="white"/>
</svg>
