<svg width="82" height="81" viewBox="0 0 82 81" fill="none" xmlns="http://www.w3.org/2000/svg">
<g clip-path="url(#clip0_335_40)">
<path d="M15.3916 69.0075C20.2597 69.0075 24.2049 65.0624 24.2049 60.1942C24.2049 55.3261 20.2597 51.381 15.3916 51.381C10.5235 51.381 6.57837 55.3261 6.57837 60.1942C6.57837 65.0624 10.5235 69.0075 15.3916 69.0075V69.0075Z" stroke="black" stroke-width="6.33397"/>
<path d="M27.9781 79.0878C25.4988 74.4368 20.6578 71.5322 15.3825 71.5322C10.1072 71.5322 5.26628 74.4368 2.78699 79.0878" stroke="black" stroke-width="6.33397"/>
<path d="M65.7648 69.0075C70.6329 69.0075 74.5781 65.0624 74.5781 60.1942C74.5781 55.3261 70.6329 51.381 65.7648 51.381C60.8967 51.381 56.9515 55.3261 56.9515 60.1942C56.9515 65.0624 60.8967 69.0075 65.7648 69.0075Z" stroke="black" stroke-width="6.33397"/>
<path d="M78.3513 79.0878C75.872 74.4368 71.031 71.5322 65.7557 71.5322C60.4804 71.5322 55.6395 74.4368 53.1602 79.0878" stroke="black" stroke-width="6.33397"/>
<path d="M40.5738 21.15C45.4419 21.15 49.387 17.2048 49.387 12.3367C49.387 7.4686 45.4419 3.52344 40.5738 3.52344C35.7057 3.52344 31.7605 7.4686 31.7605 12.3367C31.7605 17.2048 35.7057 21.15 40.5738 21.15Z" stroke="black" stroke-width="6.33397"/>
<path d="M51.4863 28.7145C48.7627 25.5203 44.7723 23.6744 40.5738 23.6744C36.3753 23.6744 32.3849 25.5203 29.6613 28.7145" stroke="black" stroke-width="6.33397"/>
<path d="M30.6746 67.1889C37.1081 69.6411 44.2202 69.623 50.6356 67.1256" stroke="#0077FF" stroke-width="6.33397"/>
<path d="M21.5989 21.1499C16.025 26.3709 12.8671 33.664 12.8671 41.301C12.8671 42.1515 12.9214 42.984 12.9937 43.8165" stroke="#0077FF" stroke-width="6.33397"/>
<path d="M68.1536 43.8255C68.226 42.993 68.2803 42.1425 68.2803 41.31C68.2803 33.6731 65.1224 26.3799 59.5485 21.1589" stroke="#0077FF" stroke-width="6.33397"/>
</g>
<defs>
<clipPath id="clip0_335_40">
<rect width="81.1472" height="80.2152" fill="white" transform="translate(0 0.356445)"/>
</clipPath>
</defs>
</svg>
