<svg width="276" height="55" viewBox="0 0 276 55" fill="none" xmlns="http://www.w3.org/2000/svg">
<g clip-path="url(#clip0_344_103)">
<path d="M69.3865 0.041626H0V54.2687H69.3865V0.041626Z" fill="#CFCFCF"/>
<path d="M275.629 0.0416336H74.7534V54.2687H275.629V0.0416336Z" fill="#CFCFCF"/>
<path d="M26.5373 28.6579C26.9102 27.7879 27.1475 26.8426 27.1362 25.8295C27.0797 21.9238 23.8783 18.794 19.9727 18.8505C16.4813 18.8919 13.6302 21.4681 13.0916 24.8013C12.3798 24.5715 11.6378 24.4284 10.8469 24.4359C6.94128 24.4811 3.81149 27.6938 3.85668 31.5994C3.91318 35.5051 7.12206 38.6349 11.0277 38.5821C11.7546 38.5708 12.4438 38.4239 13.0992 38.213C13.6453 41.6215 16.5981 44.2165 20.1534 44.1676C24.0591 44.1224 27.1813 40.9097 27.1324 37.0041C27.1173 36.055 26.88 35.1736 26.526 34.3564H52.1029V44.1676H56.0462V39.9418H59.112V44.1676H63.0553V34.3564H65.5373V28.6617H26.5373V28.6579ZM10.9298 34.4995C9.27638 34.4995 7.94688 33.1587 7.94688 31.4977C7.94688 29.8368 9.28015 28.5148 10.9298 28.5148C12.5794 28.5148 13.924 29.8556 13.924 31.4977C13.924 33.1398 12.5907 34.4995 10.9298 34.4995V34.4995ZM20.0555 22.9294C21.7165 22.9294 23.0497 24.2702 23.0497 25.9123C23.0497 27.5544 21.7165 28.9141 20.0555 28.9141C18.3946 28.9141 17.0726 27.5733 17.0726 25.9123C17.0726 24.2514 18.4059 22.9294 20.0555 22.9294ZM20.0555 40.0849C18.4021 40.0849 17.0726 38.7441 17.0726 37.0831C17.0726 35.4222 18.4059 34.1002 20.0555 34.1002C21.7052 34.1002 23.0497 35.441 23.0497 37.0831C23.0497 38.7253 21.7165 40.0849 20.0555 40.0849Z" fill="white"/>
<path d="M136.98 16.892C129.768 16.892 123.919 22.7411 123.919 29.9535C123.919 37.166 129.768 43.0226 136.98 43.0226C144.193 43.0226 150.046 37.1735 150.046 29.9535C150.046 22.7336 144.197 16.892 136.98 16.892ZM136.98 39.7233C131.587 39.7233 127.218 35.3507 127.218 29.9535C127.218 24.5564 131.591 20.1913 136.98 20.1913C142.37 20.1913 146.75 24.564 146.75 29.9535C146.75 35.3431 142.377 39.7233 136.98 39.7233ZM165.476 16.892C158.264 16.892 152.415 22.7411 152.415 29.9535V54.2574H155.714V38.552C158.109 41.2713 161.57 43.0188 165.476 43.0188C172.692 43.0188 178.545 37.1698 178.545 29.9498C178.545 22.7298 172.696 16.8883 165.476 16.8883V16.892ZM165.476 39.7233C160.083 39.7233 155.714 35.3507 155.714 29.9535C155.714 24.5564 160.086 20.1913 165.476 20.1913C170.866 20.1913 175.246 24.564 175.246 29.9535C175.246 35.3431 170.873 39.7233 165.476 39.7233ZM193.972 16.892C186.759 16.892 180.91 22.7411 180.91 29.9535V54.2574H184.21V38.552C186.605 41.2713 190.066 43.0188 193.972 43.0188C201.192 43.0188 207.041 37.1698 207.041 29.9498C207.041 22.7298 201.192 16.8883 193.972 16.8883V16.892ZM193.972 39.7233C188.579 39.7233 184.21 35.3507 184.21 29.9535C184.21 24.5564 188.582 20.1913 193.972 20.1913C199.361 20.1913 203.742 24.564 203.742 29.9535C203.742 35.3431 199.369 39.7233 193.972 39.7233ZM222.471 16.892C215.259 16.892 209.41 22.7411 209.41 29.9535C209.41 37.166 215.259 43.0226 222.471 43.0226H232.78V39.7233H222.471C220.374 39.7233 218.438 39.0492 216.845 37.9193L232.776 22.0104C230.384 18.9183 226.678 16.892 222.468 16.892H222.471ZM214.509 35.5842C213.383 33.991 212.709 32.0589 212.709 29.9535C212.709 24.5602 217.078 20.1913 222.471 20.1913C224.569 20.1913 226.471 20.9107 228.061 22.0443L214.509 35.5842ZM97.1216 27.1477C97.1216 35.9156 104.225 43.0188 112.985 43.0188H120.54V39.7196H112.985C106.04 39.7196 100.421 34.0927 100.421 27.1439C100.421 20.1951 106.04 14.5833 112.985 14.5833H120.54V11.284H112.985C104.225 11.284 97.1216 18.3873 97.1216 27.1439V27.1477ZM248.244 39.7233C242.851 39.7233 238.482 35.3507 238.482 29.9535V11.2878H235.183V29.9535C235.183 37.1735 241.032 43.0226 248.244 43.0226H253.253V39.7233H248.244Z" fill="white"/>
</g>
<defs>
<clipPath id="clip0_344_103">
<rect width="275.625" height="54.2271" fill="white" transform="translate(0 0.041626)"/>
</clipPath>
</defs>
</svg>
