<svg width="22" height="24" viewBox="0 0 22 24" fill="none" xmlns="http://www.w3.org/2000/svg">
<path d="M4.95 7.70001H0.55C0.246244 7.70001 0 7.94626 0 8.25001V22.55C0 22.8538 0.246244 23.1 0.55 23.1H4.95C5.25376 23.1 5.5 22.8538 5.5 22.55V8.25001C5.5 7.94626 5.25376 7.70001 4.95 7.70001Z" fill="white"/>
<path d="M2.728 5.5C4.235 5.5 5.456 4.268 5.456 2.75C5.456 1.232 4.235 0 2.728 0C1.221 0 0 1.232 0 2.75C0 4.268 1.221 5.5 2.728 5.5Z" fill="white"/>
<path d="M18.15 23.0991H21.45C21.758 23.0991 22 22.8571 22 22.5491V13.3091C22 9.16213 19.657 7.14913 16.379 7.14913C15.07 7.10513 13.805 7.61113 12.892 8.54613C12.771 8.68913 12.573 8.74413 12.397 8.67813C12.221 8.61213 12.1 8.44713 12.1 8.24913C12.1 7.94113 11.858 7.69913 11.55 7.69913H8.24995C7.94195 7.69913 7.69995 7.94113 7.69995 8.24913V22.5491C7.69995 22.8571 7.94195 23.0991 8.24995 23.0991H11.55C11.858 23.0991 12.1 22.8571 12.1 22.5491V14.2991C12.1 12.7811 13.332 11.5491 14.85 11.5491C16.368 11.5491 17.6 12.7811 17.6 14.2991V22.5491C17.6 22.8571 17.842 23.0991 18.15 23.0991Z" fill="white"/>
</svg>
