<svg width="76" height="74" viewBox="0 0 76 74" fill="none" xmlns="http://www.w3.org/2000/svg">
<g clip-path="url(#clip0_338_2)">
<path d="M40.0031 71.771L31.4305 62.1298C29.6549 60.1373 29.8396 57.0842 31.8322 55.3086C33.8247 53.533 36.8778 53.7178 38.6534 55.7103L44.6631 62.4672V34.5558C44.6631 32.8927 45.5469 31.3581 46.993 30.5306C48.4312 29.703 50.2068 29.703 51.645 30.5306C53.0831 31.3581 53.9749 32.9007 53.9749 34.5558V55.4934H58.6268C66.3318 55.4934 72.5825 61.7441 72.5825 69.4491V71.7791" stroke="black" stroke-width="5.62407" stroke-linejoin="bevel"/>
<path d="M8.59674 71.4417C7.022 68.8466 5.7606 66.0748 4.82861 63.1904" stroke="black" stroke-width="5.62407"/>
<path d="M3.02089 54.7624C2.71558 51.7415 2.74772 48.6965 3.12533 45.6836" stroke="black" stroke-width="5.62407"/>
<path d="M5.19019 37.3116C6.22662 34.4594 7.6005 31.7358 9.27165 29.205" stroke="black" stroke-width="5.62407"/>
<path d="M14.743 22.5365C16.9123 20.4154 19.3226 18.5595 21.9177 16.9928" stroke="black" stroke-width="5.62407"/>
<path d="M29.7512 13.3933C31.1813 12.8791 32.6436 12.4854 34.138 12.1962" stroke="black" stroke-width="5.62407"/>
<path d="M44.655 1.9845L58.6107 15.9402" stroke="#0077FF" stroke-width="5.62407"/>
<path d="M58.6107 1.9845L44.655 15.9402" stroke="#0077FF" stroke-width="5.62407"/>
</g>
<defs>
<clipPath id="clip0_338_2">
<rect width="75.3786" height="73.6431" fill="white"/>
</clipPath>
</defs>
</svg>
