<svg width="75" height="80" viewBox="0 0 75 80" fill="none" xmlns="http://www.w3.org/2000/svg">
<g clip-path="url(#clip0_338_14)">
<path d="M62.3467 26.0717C67.4084 26.0717 71.5059 30.1692 71.5059 35.2308V55.839C71.5059 60.9007 67.4084 64.9982 62.3467 64.9982V74.1574L46.3182 64.9982H25.71C20.6483 64.9982 16.5508 60.9007 16.5508 55.839V35.2308C16.5508 30.1692 20.6483 26.0717 25.71 26.0717H62.3467Z" stroke="black" stroke-width="5.62407"/>
<path d="M2.81201 51.2593V26.0716C2.81201 21.0099 6.90954 16.9124 11.9712 16.9124V5.46338L27.9998 16.9124H48.608" stroke="#0077FF" stroke-width="5.62407"/>
<path d="M48.608 42.1001C48.624 38.9426 46.4789 36.1788 43.4178 35.4075C40.3567 34.6362 37.159 36.0583 35.6726 38.8462C34.1943 41.6341 34.8049 45.0809 37.159 47.1859V51.2593H46.3182V47.1859C47.7724 45.8924 48.5999 44.0445 48.608 42.1001V42.1001Z" stroke="black" stroke-width="5.62407"/>
<path d="M41.7385 51.2594V55.839" stroke="black" stroke-width="5.62407"/>
</g>
<defs>
<clipPath id="clip0_338_14">
<rect width="74.318" height="79.0021" fill="white"/>
</clipPath>
</defs>
</svg>
