<svg width="276" height="56" viewBox="0 0 276 56" fill="none" xmlns="http://www.w3.org/2000/svg">
<g clip-path="url(#clip0_344_108)">
<path d="M266.509 46.9415C266.521 42.466 262.057 39.1124 266.075 33.3212C266.556 32.7515 266.462 31.8881 266.087 31.0365C265.523 29.9852 264.001 26.931 263.338 26.2673C255.702 31.6708 244.79 52.3979 242.217 52.3862C239.551 52.3803 241.671 43.7171 246.27 36.3049C247.415 34.4019 246.939 34.308 246.657 33.7324C246.376 33.2566 245.048 31.1598 244.572 30.7722C244.097 30.3845 243.527 29.6269 242.476 30.8603C241.424 32.0996 229.49 42.5365 226.999 45.1972C228.344 42.0608 231.216 36.8276 232.08 35.3064C233.037 33.5033 232.467 33.0276 231.898 32.358C231.328 31.7883 229.719 29.6915 229.049 29.2099C228.479 28.7283 228.004 28.6343 226.952 29.6739C222.365 34.1318 218.841 36.3166 216.075 37.3562C217.437 28.0293 200.61 17.7862 191.483 44.6157C185.845 51.0764 179.454 53.9191 181.857 47.3527C183.278 43.6114 188.276 32.4696 192.329 24.1235C200.234 23.8005 209.796 23.5362 215.441 23.7124C216.198 23.777 216.633 23.683 216.856 23.4011C217.009 23.2073 217.032 22.943 216.926 22.6258V22.667C216.762 21.6098 216.574 20.8168 216.357 20.2413V20.2706C216.169 19.4836 215.493 19.0313 214.507 19.0255C212.175 19.0196 202.971 19.5365 194.308 20.1238C195.213 18.3383 196.011 16.8406 196.616 15.7951C197.098 14.9376 196.91 13.8922 196.34 13.1286C195.677 12.2711 193.78 10.0686 192.922 9.59286C192.159 9.11124 191.589 9.29919 190.913 10.7264C189.968 12.8173 188.335 16.4764 186.403 20.6994C184.083 20.8815 182.039 21.0577 180.482 21.2104C179.231 21.3043 178.456 22.6317 178.086 23.2719C178.057 23.3248 178.021 23.3776 177.998 23.4187V23.4305L177.986 23.4481C177.816 23.8475 177.833 24.2116 178.039 24.4877C178.25 24.7696 178.638 24.9047 179.102 24.8401C179.578 24.7755 181.657 24.6345 184.658 24.4818C181.663 30.9014 178.262 37.8731 175.584 42.3897C168.407 53.4199 163.179 51.9691 165.188 46.3601C167.109 40.845 172.089 32.5694 172.947 31.1481C173.616 30.0087 173.816 28.6754 171.619 28.6695C169.711 28.6695 168.007 26.9428 168.589 23.3306C168.877 21.3278 167.455 20.4644 166.592 22.0855C164.195 26.6491 157.606 33.2977 154.463 34.3314C154.951 31.0013 152.008 26.6139 142.869 26.5845C140.749 26.5845 136.332 26.6373 130.976 26.7607C135.51 17.1284 139.639 8.84694 140.068 8.195C140.356 7.62528 140.267 6.86174 139.88 6.47998C139.216 5.71644 137.413 4.09539 136.561 3.51393C135.898 3.03819 134.94 3.22026 134.47 3.9838C130.571 11.1317 126.859 19.1429 123.528 26.9486C118.706 27.1013 113.655 27.2893 109.121 27.5242C113.191 18.2326 117.038 9.54 118.36 6.50347C118.841 5.55786 119.129 4.8883 118.372 4.03079C117.614 3.17328 115.141 1.16459 114.378 0.588997C113.62 -0.0746925 112.575 0.107382 112.093 1.24681C110.337 5.03513 104.974 17.2165 100.211 28.1174C99.3771 28.1879 98.6077 28.2643 97.9146 28.3465C94.8664 28.7165 95.3362 31.1951 97.8148 31.013C98.1965 31.0013 98.5724 31.0013 98.9542 31.013C95.16 39.6938 92.0295 46.9298 91.8592 47.3762C91.2836 48.6155 91.2836 49.7549 92.2292 50.9002C93.0809 52.0514 95.5535 54.0542 96.1233 54.5358C96.7928 55.0174 97.3625 54.9234 97.9322 53.6842C99.5357 49.6022 103.013 41.5087 106.684 33.0922C111.876 36.0641 115.206 42.1313 114.601 50.7827C114.501 51.7342 114.213 52.8795 114.883 53.4492C115.546 54.0189 116.592 54.8882 117.256 55.2641C118.489 55.8397 118.971 54.8882 119.352 53.9367C121.079 48.5215 125.402 38.7188 129.654 29.574C134.353 29.3861 138.265 29.3156 139.428 29.4331C125.684 38.8187 127.346 55.1114 139.445 55.1466C147.239 55.1701 153.829 44.275 154.164 37.227C158.005 35.3887 161.071 32.3932 164.19 29.2216C164.284 29.6974 164.472 30.6489 165.229 31.6062C152.801 47.7579 155.832 54.0542 162.88 54.0718C169.928 54.0953 173.27 49.1499 175.185 46.6831C172.588 55.3463 182.585 57.3609 191.371 47.7756C194.091 60.5384 210.853 56.6913 215.581 39.6762C219.029 38.5838 222.53 36.6397 224.838 34.9247C221.778 39.3003 217.749 48.128 217.373 49.0795C216.891 49.937 217.179 50.4186 217.837 51.1762C218.6 51.9339 219.546 52.8971 220.879 53.9485C221.449 54.5241 222.301 54.4301 223.258 53.2906C229.948 45.6905 237.013 39.1535 238.165 38.014C233.577 43.2355 231.921 55.4168 240.302 55.4462C246.869 55.4638 245.935 49.4612 259.226 33.7911C254.81 44.1576 259.855 45.9842 259.843 49.5082C259.826 54.7472 253.923 54.0601 253.94 48.4451C253.94 47.6816 253.664 46.7242 252.701 48.3453C251.838 49.8665 251.268 50.724 250.886 51.3877C250.411 51.9574 250.598 52.627 251.356 53.1027C256.865 57.0261 266.492 55.7222 266.515 46.9592L266.509 46.9415ZM117.784 41.0741C116.369 36.7806 113.238 31.7295 110.202 30.7663C112.939 30.4785 117.52 30.1672 122.283 29.9147C120.674 33.7559 119.17 37.5266 117.79 41.0741H117.784ZM141.372 49.52C136.044 49.5082 134.735 40.9272 143.803 34.3902C143.991 36.0993 146.264 39.5352 150.64 38.5074C150.381 41.9786 146.664 49.5376 141.377 49.5258L141.372 49.52ZM204.645 35.8057C205.438 39.5411 208.158 40.704 211.453 40.4926C205.473 59.4753 191.107 48.6918 204.645 35.8057V35.8057ZM28.3799 12.0009C23.834 20.8932 14.3015 43.1121 10.4251 53.4669C9.91409 54.759 8.76879 55.5813 7.00678 54.201C5.20366 52.8208 4.22281 51.8341 3.35942 51.0881C2.57827 50.3833 2.34333 49.8724 2.86019 48.5391C7.64697 36.8922 15.3176 19.8008 20.6036 10.515C17.4261 10.6207 5.67353 11.8424 2.96003 12.0714C2.29634 12.1478 2.05554 11.7543 1.52693 10.9907C0.692917 9.78668 -0.493501 7.37273 0.217175 6.43299C17.0267 4.20699 39.4277 2.25116 56.8246 2.30402C58.0756 2.30402 58.3106 3.20852 58.4692 3.95443C58.5455 4.58288 58.9743 6.35076 59.127 7.09668C59.2033 7.6429 59.0859 8.3477 57.7878 8.3477C56.7071 8.3477 40.573 8.81757 29.766 9.52238L28.3858 11.9951L28.3799 12.0009ZM27.0232 52.7562C25.0674 53.1497 24.11 52.2511 21.4141 50.6418C20.216 49.9311 19.8459 49.3614 20.2806 48.2219C24.6738 35.9877 29.5311 27.0602 30.1596 25.9267C30.835 24.752 31.6984 24.9928 32.2505 25.4627C33.3018 26.4846 34.7525 27.9823 35.4926 28.8046C36.6261 30.0263 36.1915 30.8074 35.7216 31.6297L29.86 44.7919C26.9351 51.4053 34.4119 47.2528 40.9137 38.4663L48.0087 27.3891C48.3728 26.7901 49.0013 26.7959 49.6885 27.1953C50.3345 27.5536 53.2184 29.5035 53.6295 29.8736C53.9584 30.1731 54.1816 30.6723 53.5943 31.6062C53.0892 32.5342 48.1849 43.2648 47.4566 45.3088C52.6663 37.5735 61.4646 29.3861 62.3691 28.6225C63.2794 27.8766 63.6553 28.2878 64.1428 28.6225C64.6303 28.9514 67.4201 31.336 67.8254 31.6708C68.1602 32.0056 68.5772 32.6164 67.9194 33.5914C66.6684 35.4239 64.0547 43.8404 63.5496 45.667C67.3027 40.3693 75.8308 31.4006 76.8116 30.5725C77.7573 29.7385 78.6618 29.8559 79.6015 30.5901C80.506 31.4065 82.1388 32.6693 82.6439 33.3095C83.149 33.9556 83.0374 34.12 82.5264 34.8894C76.5356 44.2163 74.7618 52.3098 80.6939 50.771C77.8336 57.3903 67.9135 54.5299 70.1982 47.429C71.5256 43.1943 72.712 39.2944 74.2332 37.3386C69.0353 41.3266 63.0269 50.3305 61.1944 53.0498C60.8244 53.5432 60.1959 53.5784 59.6321 53.2848C58.2871 52.58 55.8673 51.4464 55.0509 50.9002C54.1581 50.2717 54.5457 49.3555 54.9745 48.5097C55.4033 47.6229 58.4163 38.0317 59.8611 36.1522C55.9671 39.4471 48.3317 47.987 44.6433 53.0792C44.2028 53.7312 43.6565 53.8369 42.7403 53.5667C41.9004 53.2143 39.833 52.0161 39.0283 51.6226C38.2589 51.2291 37.8478 50.7827 38.3881 49.7314C39.9798 46.0723 42.3703 40.7921 43.0633 39.6527C43.0633 39.6527 35.8802 50.9765 27.0173 52.7738L27.0232 52.7562ZM41.5832 21.3043C40.3381 23.8827 37.4014 25.0339 35.0168 23.8769C32.6381 22.7257 31.716 19.7068 32.9612 17.1343C34.2063 14.5558 37.1489 13.4047 39.5334 14.5558C41.9121 15.707 42.8284 18.7318 41.5832 21.3043Z" fill="#CFCFCF"/>
<path d="M275.625 52.6679C275.625 54.101 274.497 55.2287 273.029 55.2287C271.561 55.2287 270.421 54.101 270.421 52.6679C270.421 51.2348 271.578 50.1365 273.029 50.1365C274.48 50.1365 275.625 51.2642 275.625 52.6679ZM271.073 52.6679C271.073 53.7956 271.907 54.6884 273.047 54.6884C274.186 54.6884 274.979 53.7956 274.979 52.6797C274.979 51.5637 274.162 50.6416 273.035 50.6416C271.907 50.6416 271.073 51.552 271.073 52.6621V52.6679ZM272.63 53.9953H272.042V51.4639C272.277 51.4169 272.6 51.3875 273.017 51.3875C273.493 51.3875 273.71 51.4639 273.898 51.5696C274.033 51.6812 274.145 51.8809 274.145 52.1276C274.145 52.4036 273.928 52.6209 273.622 52.7149V52.7443C273.869 52.8383 274.01 53.0262 274.086 53.361C274.162 53.7486 274.209 53.9013 274.274 53.9953H273.64C273.563 53.9072 273.516 53.6723 273.44 53.3786C273.393 53.1026 273.24 52.9792 272.917 52.9792H272.641V53.9953H272.63ZM272.647 52.5563H272.923C273.246 52.5563 273.511 52.4506 273.511 52.1863C273.511 51.9514 273.34 51.7987 272.97 51.7987C272.817 51.7987 272.706 51.8104 272.647 51.828V52.5505V52.5563Z" fill="#CFCFCF"/>
</g>
<defs>
<clipPath id="clip0_344_108">
<rect width="275.625" height="55.2331" fill="white" transform="translate(0 0.201172)"/>
</clipPath>
</defs>
</svg>
