<svg width="29" height="23" viewBox="0 0 29 23" fill="none" xmlns="http://www.w3.org/2000/svg">
<path d="M29 2.68711C28.7923 2.99866 28.5716 3.28424 28.325 3.55685C27.7019 4.29678 26.9749 4.95882 26.1571 5.52999L26.0533 5.71173C26.0792 6.5555 26.0403 7.39928 25.9235 8.24306C25.6898 10.0085 25.1576 11.709 24.3657 13.3187C23.5349 14.9803 22.4575 16.4861 21.1204 17.8102C18.8357 20.0559 16.1097 21.5098 12.9293 22.1849C11.8389 22.4055 10.7355 22.5224 9.61907 22.5613C9.43733 22.5613 9.25559 22.5613 9.08684 22.5613C5.8675 22.5613 2.89481 21.7435 0.142793 20.1079L0 20.017C0.467323 20.0689 0.934646 20.0949 1.38899 20.0949C2.95971 20.0949 4.46553 19.8093 5.94539 19.2381C6.95792 18.8357 7.89257 18.3165 8.77529 17.6544C5.69875 17.5636 3.79051 15.4217 3.28424 13.6952C3.64772 13.7601 4.02417 13.799 4.38765 13.799C4.86795 13.799 5.34825 13.7471 5.82856 13.6303L5.91943 13.5913C4.24485 13.2149 2.95971 12.3711 2.08997 10.9821C1.49284 10.0604 1.23321 9.04789 1.23321 7.95747C2.07699 8.38585 2.93375 8.61952 3.8684 8.64548C2.6222 7.78872 1.79141 6.64637 1.45389 5.19248C1.11638 3.73858 1.35004 2.36258 2.12892 1.06446C5.30931 4.69919 9.35944 6.68532 14.3183 7.02283C14.2923 6.78917 14.2534 6.59445 14.2274 6.39973C14.0716 5.06267 14.3702 3.81647 15.1361 2.67413C16.0967 1.24619 17.4467 0.363474 19.1732 0.0908684C19.5367 0.0259624 19.9002 0 20.2507 0C21.8084 0 23.1714 0.571173 24.3527 1.67457C24.4306 1.73948 24.4825 1.77842 24.5734 1.77842C24.5994 1.77842 24.6383 1.77842 24.6643 1.77842C25.8845 1.53178 27.0398 1.1034 28.1303 0.506267L28.2081 0.467323C27.7798 1.79141 26.91 2.81692 25.6898 3.56983C26.8451 3.453 27.9355 3.15443 29 2.71307V2.68711Z" fill="white"/>
</svg>
