<svg width="199" height="73" viewBox="0 0 199 73" fill="none" xmlns="http://www.w3.org/2000/svg">
<path d="M112.718 51.4504C112.718 51.7634 112.804 51.9341 113.003 51.9341C113.145 51.9341 113.259 51.8772 113.401 51.7919L164.738 18.4118C165.648 17.8142 166.473 17.5011 167.697 17.5011H178.995C180.73 17.5011 181.897 18.6679 181.897 20.4038V41.9457C181.897 44.5353 181.328 46.0435 178.995 47.4379L165.307 55.662C165.136 55.7758 164.965 55.8328 164.851 55.8328C164.681 55.8328 164.538 55.7189 164.538 55.2352V30.0791C164.538 29.7946 164.453 29.5954 164.254 29.5954C164.112 29.5954 163.998 29.6523 163.855 29.7377L126.321 54.1253C125.268 54.8083 124.414 55.0075 123.446 55.0075H98.5465C96.8107 55.0075 95.6439 53.8408 95.6439 52.1049V21.0867C95.6439 20.8591 95.5301 20.6599 95.3594 20.6599C95.2171 20.6599 95.1033 20.7168 94.961 20.8021L70.2034 35.6852C69.9472 35.8275 69.8903 35.9697 69.8903 36.0836C69.8903 36.1974 69.9188 36.2828 70.118 36.4535L87.7898 54.1253C88.0175 54.353 88.1882 54.5522 88.1882 54.7229C88.1882 54.9221 87.9321 55.036 87.6191 55.036H71.6262C70.3741 55.036 69.4066 54.8368 68.7236 54.1538L57.9953 43.4255C57.8815 43.3117 57.7961 43.2547 57.6823 43.2547C57.5969 43.2547 57.4546 43.3117 57.3408 43.3686L39.4128 54.1538C38.3315 54.8083 37.5916 55.0075 36.5102 55.0075H20.0052C18.2693 55.0075 17.1025 53.8408 17.1025 52.1049V30.9613C17.1025 28.3433 17.6717 26.8635 20.0052 25.4691L33.7784 17.1881C33.9206 17.1027 34.0345 17.0743 34.1483 17.0743C34.3475 17.0743 34.4613 17.3019 34.4613 17.7572V46.0435C34.4613 46.3281 34.5467 46.4704 34.7459 46.4704C34.8597 46.4704 35.002 46.385 35.1443 46.2996L81.6715 18.3264C82.7814 17.6719 83.4643 17.4727 84.7449 17.4727H109.787C111.523 17.4727 112.69 18.6394 112.69 20.3753L112.718 51.4504Z" fill="#CFCFCF"/>
</svg>
