<svg width="76" height="76" viewBox="0 0 76 76" fill="none" xmlns="http://www.w3.org/2000/svg">
<g clip-path="url(#clip0_338_22)">
<path d="M10.1118 17.0777C13.9588 17.0777 17.0777 13.9588 17.0777 10.1118C17.0777 6.26481 13.9588 3.14587 10.1118 3.14587C6.26481 3.14587 3.14587 6.26481 3.14587 10.1118C3.14587 13.9588 6.26481 17.0777 10.1118 17.0777Z" stroke="#0077FF" stroke-width="6.29181"/>
<path d="M15.7474 14.2015L21.7157 18.5249" stroke="#0077FF" stroke-width="6.29181"/>
<path d="M10.1118 72.7872C13.9588 72.7872 17.0777 69.6683 17.0777 65.8213C17.0777 61.9743 13.9588 58.8553 10.1118 58.8553C6.26481 58.8553 3.14587 61.9743 3.14587 65.8213C3.14587 69.6683 6.26481 72.7872 10.1118 72.7872Z" stroke="#0077FF" stroke-width="6.29181"/>
<path d="M15.7474 61.7315L21.7157 57.3992" stroke="#0077FF" stroke-width="6.29181"/>
<path d="M65.8213 17.0777C69.6683 17.0777 72.7872 13.9588 72.7872 10.1118C72.7872 6.26481 69.6683 3.14587 65.8213 3.14587C61.9743 3.14587 58.8553 6.26481 58.8553 10.1118C58.8553 13.9588 61.9743 17.0777 65.8213 17.0777Z" stroke="#0077FF" stroke-width="6.29181"/>
<path d="M60.1856 14.2015L54.2174 18.5249" stroke="#0077FF" stroke-width="6.29181"/>
<path d="M65.8213 72.7872C69.6683 72.7872 72.7872 69.6683 72.7872 65.8213C72.7872 61.9743 69.6683 58.8553 65.8213 58.8553C61.9743 58.8553 58.8553 61.9743 58.8553 65.8213C58.8553 69.6683 61.9743 72.7872 65.8213 72.7872Z" stroke="#0077FF" stroke-width="6.29181"/>
<path d="M60.1856 61.7315L54.2174 57.3992" stroke="#0077FF" stroke-width="6.29181"/>
<path d="M37.9665 33.3196C42.4516 33.3196 46.0919 29.6793 46.0919 25.1941C46.0919 20.709 42.4516 17.0687 37.9665 17.0687C33.4813 17.0687 29.8411 20.709 29.8411 25.1941C29.8411 29.6793 33.4813 33.3196 37.9665 33.3196Z" stroke="black" stroke-width="6.29181"/>
<path d="M24.0347 49.5704C24.0347 41.8764 30.2725 35.6385 37.9665 35.6385C45.6605 35.6385 51.8984 41.8764 51.8984 49.5704H24.0347Z" stroke="black" stroke-width="6.29181"/>
</g>
<defs>
<clipPath id="clip0_338_22">
<rect width="75.9331" height="75.9331" fill="white"/>
</clipPath>
</defs>
</svg>
