<svg width="202" height="37" viewBox="0 0 202 37" fill="none" xmlns="http://www.w3.org/2000/svg">
<g clip-path="url(#clip0_344_114)">
<path fill-rule="evenodd" clip-rule="evenodd" d="M198.923 29.3999C197.217 29.3999 195.835 30.7819 195.835 32.4662C195.835 34.1505 197.217 35.5541 198.923 35.5541C200.629 35.5541 201.989 34.1721 201.989 32.4662C201.989 30.7603 200.618 29.3999 198.923 29.3999V29.3999ZM198.923 35.187C197.422 35.187 196.213 33.9778 196.213 32.4662C196.213 30.9546 197.422 29.767 198.923 29.767C200.424 29.767 201.622 30.9762 201.622 32.4662C201.622 33.9562 200.413 35.187 198.923 35.187Z" fill="#CFCFCF"/>
<path fill-rule="evenodd" clip-rule="evenodd" d="M200.51 31.6672C200.51 31.3757 200.38 31.0734 200.121 30.9222C199.862 30.7711 199.571 30.7495 199.279 30.7495H197.778V34.1937H198.199V32.6066H198.977L199.959 34.1937H200.456L199.419 32.6066C200.035 32.5958 200.51 32.3366 200.51 31.6672V31.6672ZM198.847 32.2826H198.199V31.0626H199.182C199.614 31.0626 200.078 31.1274 200.078 31.6564C200.078 32.3582 199.333 32.2718 198.847 32.2718V32.2826Z" fill="#CFCFCF"/>
<path fill-rule="evenodd" clip-rule="evenodd" d="M180.881 15.0291L187.176 8.31343C187.543 7.81677 187.726 7.47127 187.726 7.17975C187.726 6.68309 187.305 6.48874 185.966 6.48874H184.379V2.23475H201.568V6.47795H199.311C196.699 6.47795 196.213 6.87743 192.574 11.4553L182.619 22.2091V28.7736C182.619 30.4472 183.472 31.041 185.891 31.041H189.648V35.133H165.571V31.041H169.328C171.758 31.041 172.6 30.4472 172.6 28.7736V22.2091L160.874 9.23117C158.931 6.96381 159.201 6.46715 153.802 6.46715V2.23475H175.58V6.47795H174.025C172.449 6.47795 171.779 6.76946 171.779 7.3633C171.779 7.85996 172.265 8.24865 172.567 8.64813L178.506 15.1155C179.207 15.8497 180.071 15.9469 180.87 15.0291H180.881Z" fill="#CFCFCF"/>
<path fill-rule="evenodd" clip-rule="evenodd" d="M34.777 2.23476H40.0243V14.079H35.1764C34.7446 11.7145 33.2654 10.7859 31.9158 9.54429C29.4757 7.30932 24.2067 5.44145 19.7584 5.44145C14.0252 5.44145 9.199 7.22294 9.199 9.8358C9.199 17.0913 41.9569 11.315 41.9569 25.0271C41.9569 32.1855 34.9389 36.1803 22.3389 36.1803C17.9769 36.1803 11.3692 34.8307 7.48228 32.7577C6.26223 32.0559 5.74397 33.4271 5.51724 35.1438H0.129563V22.9109H4.99898C6.06788 26.0204 7.55786 26.6574 8.91827 27.8991C11.2828 30.0693 16.908 31.6456 22.0582 31.6024C29.832 31.5269 32.5096 29.8317 32.5096 27.3592C32.5096 24.8867 29.8643 24.3037 21.3456 22.9649L14.1116 21.7772C5.93832 20.5356 0 18.7109 0 12.2003C0 5.68978 7.51467 1.19825 19.4021 1.19825C24.4119 1.19825 28.6011 1.86766 32.6284 4.14582C33.7404 4.86921 34.7877 4.95559 34.777 2.23476Z" fill="#CFCFCF"/>
<path fill-rule="evenodd" clip-rule="evenodd" d="M137.283 22.0579L137.391 8.89647C137.391 7.16896 136.495 6.57513 133.925 6.57513H130.913V2.48309H150.099V6.57513H147.594C145.024 6.57513 144.128 7.16896 144.128 8.89647V35.3922L136.614 35.3382L112.299 12.3083V29.0328C112.299 30.7063 113.195 31.3541 115.765 31.3541H119.101V35.403H99.1807V31.3541H102.485C105.054 31.3541 105.95 30.7171 105.95 29.0328V8.89647C105.95 7.16896 105.054 6.57513 102.485 6.57513H99.1807V2.48309H116.413L137.294 22.0579H137.283Z" fill="#CFCFCF"/>
<path fill-rule="evenodd" clip-rule="evenodd" d="M73.0197 0.949899C57.7312 0.949899 48.1543 7.70878 48.1543 18.5597C48.1543 29.4106 57.5908 35.9212 72.5554 35.9212C88.4377 35.9212 97.6799 29.3135 97.6799 18.0091C97.6799 7.84915 87.7035 0.939102 73.0197 0.939102V0.949899ZM72.6742 31.6348C64.2093 31.6348 59.3399 26.7546 59.3399 18.3114C59.3399 9.86817 64.4145 5.1931 73.0952 5.1931C81.776 5.1931 86.2783 10.1813 86.2783 18.6569C86.2783 27.1325 81.3441 31.6348 72.6634 31.6348H72.6742Z" fill="#CFCFCF"/>
</g>
<defs>
<clipPath id="clip0_344_114">
<rect width="202" height="35.2304" fill="white" transform="translate(0 0.949951)"/>
</clipPath>
</defs>
</svg>
