<svg width="93" height="86" viewBox="0 0 93 86" fill="none" xmlns="http://www.w3.org/2000/svg">
<g clip-path="url(#clip0_338_36)">
<path d="M46.0741 20.3135C50.8199 20.3135 54.6579 16.4665 54.6579 11.7297C54.6579 6.99286 50.8109 3.14587 46.0741 3.14587C41.3372 3.14587 37.4902 6.99286 37.4902 11.7297C37.4902 16.4665 41.3372 20.3135 46.0741 20.3135V20.3135Z" stroke="#0077FF" stroke-width="6.29181"/>
<path d="M30.713 25.5987L39.3058 17.0059" stroke="#0077FF" stroke-width="6.29181"/>
<path d="M26.039 34.623C29.2029 34.623 31.7646 32.0613 31.7646 28.8974C31.7646 25.7335 29.2029 23.1719 26.039 23.1719C22.8751 23.1719 20.3135 25.7335 20.3135 28.8974C20.3135 32.0613 22.8751 34.623 26.039 34.623V34.623Z" stroke="#0077FF" stroke-width="6.29181"/>
<path d="M61.435 25.5987L52.8422 17.0059" stroke="#0077FF" stroke-width="6.29181"/>
<path d="M66.1088 34.623C69.2727 34.623 71.8344 32.0613 71.8344 28.8974C71.8344 25.7335 69.2727 23.1719 66.1088 23.1719C62.945 23.1719 60.3833 25.7335 60.3833 28.8974C60.3833 32.0613 62.945 34.623 66.1088 34.623Z" stroke="#0077FF" stroke-width="6.29181"/>
<path d="M14.597 83.3306L6.91197 73.7311C4.47614 70.684 3.14587 66.9 3.14587 63.008V43.2697C3.14587 40.1059 5.70754 37.5442 8.87142 37.5442C12.0353 37.5442 14.597 40.1059 14.597 43.2697V57.5791" stroke="black" stroke-width="6.29181"/>
<path d="M31.7647 83.3304V71.367C31.7647 67.9695 30.758 64.6528 28.8794 61.8304L24.5201 55.3049C23.7651 54.0556 22.5337 53.1657 21.1136 52.8422C19.6844 52.5186 18.1924 52.7972 16.9789 53.6062C14.7409 55.0982 13.9679 58.0284 15.1723 60.4373L20.3316 69.0211" stroke="black" stroke-width="6.29181"/>
<path d="M77.5599 83.3305L85.2449 73.722C87.6808 70.675 89.011 66.8909 89.011 62.999V43.2607C89.011 40.0968 86.4494 37.5352 83.2855 37.5352C80.1216 37.5352 77.5599 40.0968 77.5599 43.2607V57.5701" stroke="black" stroke-width="6.29181"/>
<path d="M60.3833 83.3305V71.3671C60.3833 67.9695 61.39 64.6529 63.2685 61.8305L67.6279 55.296C68.3829 54.0467 69.6143 53.1478 71.0344 52.8332C72.4636 52.5097 73.9556 52.7883 75.169 53.5972C77.4071 55.0983 78.1891 58.0285 76.9757 60.4373L71.8164 69.0212" stroke="black" stroke-width="6.29181"/>
</g>
<defs>
<clipPath id="clip0_338_36">
<rect width="92.148" height="85.2989" fill="white"/>
</clipPath>
</defs>
</svg>
