<svg width="75" height="75" viewBox="0 0 75 75" fill="none" xmlns="http://www.w3.org/2000/svg">
<g clip-path="url(#clip0_338_49)">
<path d="M30.4074 48.5727V71.2861H3.14587V21.3202H16.7721" stroke="black" stroke-width="6.29181"/>
<path d="M3.14587 62.208H30.4074" stroke="black" stroke-width="6.29181"/>
<path d="M22.6235 9.95898H16.7811V48.5727H39.4945V59.9339L53.1208 48.5727H71.2951V9.95898H65.228" stroke="black" stroke-width="6.29181"/>
<path d="M44.0336 15.6577C44.6627 15.6577 45.1661 16.17 45.1661 16.7902" stroke="#0077FF" stroke-width="6.29181"/>
<path d="M42.9011 16.7902C42.9011 16.1611 43.4135 15.6577 44.0337 15.6577" stroke="#0077FF" stroke-width="6.29181"/>
<path d="M44.0337 17.9138C43.4045 17.9138 42.9011 17.4014 42.9011 16.7812" stroke="#0077FF" stroke-width="6.29181"/>
<path d="M45.1661 16.7722C45.1661 17.4014 44.6538 17.9047 44.0336 17.9047" stroke="#0077FF" stroke-width="6.29181"/>
<path d="M44.0336 3.14587C51.5568 3.14587 57.6599 9.24893 57.6599 16.7721C57.6599 22.5876 49.5165 33.6611 45.8223 38.389C45.3908 38.9373 44.7347 39.2608 44.0336 39.2608C43.3325 39.2608 42.6764 38.9373 42.2449 38.389C38.5507 33.6611 30.4073 22.5876 30.4073 16.7721C30.4073 9.24893 36.5104 3.14587 44.0336 3.14587V3.14587Z" stroke="#0077FF" stroke-width="6.29181"/>
</g>
<defs>
<clipPath id="clip0_338_49">
<rect width="74.4411" height="74.4411" fill="white"/>
</clipPath>
</defs>
</svg>
