<svg width="238" height="68" viewBox="0 0 238 68" fill="none" xmlns="http://www.w3.org/2000/svg">
<g clip-path="url(#clip0_344_201)">
<path d="M208.061 23.0581C209.632 23.0581 210.971 22.2206 211.076 21.1948L212.646 3.58762C212.646 1.80806 210.595 0.468159 208.061 0.468159C205.528 0.468159 203.476 1.93368 203.476 3.58762L205.047 21.1948C205.151 22.2416 206.512 23.0581 208.061 23.0581ZM198.473 28.5852C199.31 27.2243 199.205 25.6751 198.368 25.047L183.901 14.9558C182.436 14.1184 180.154 15.1652 178.898 17.3425C177.641 19.5199 177.851 22.0322 179.316 22.8696L195.353 30.3647C196.4 30.6788 197.74 29.946 198.473 28.5852M217.524 28.5852C218.362 29.946 219.702 30.6369 220.644 30.2391L236.681 22.744C238.146 21.9066 238.46 19.4152 237.1 17.2169C235.843 15.0396 233.561 13.9928 232.096 14.8302L217.629 24.9214C216.792 25.6541 216.687 27.2034 217.524 28.5642M208.04 45.0199C209.611 45.0199 210.951 45.8573 211.055 46.8832L212.625 64.4903C212.625 66.2699 210.574 67.6098 208.04 67.6098C205.507 67.6098 203.455 66.1443 203.455 64.4903L205.026 46.8832C205.13 45.8364 206.491 45.0199 208.04 45.0199ZM217.524 39.5137C218.362 38.1529 219.702 37.462 220.644 37.8598L236.681 45.2502C238.146 46.0876 238.46 48.579 237.1 50.7773C235.843 52.9546 233.561 54.0014 232.096 53.164L217.629 43.0728C216.792 42.4448 216.687 40.8955 217.524 39.5347M198.473 39.5347C199.31 40.8955 199.205 42.4448 198.368 43.0728L183.901 53.164C182.436 54.0014 180.154 52.9546 178.898 50.7773C177.641 48.5999 177.851 46.0876 179.316 45.2502L195.353 37.8598C196.4 37.4411 197.74 38.1738 198.473 39.5137" fill="#CFCFCF"/>
<path d="M131.624 41.4189C131.624 41.8586 131.624 42.382 131.457 42.7379C130.933 44.3918 129.196 45.8783 127.018 45.8783C125.155 45.8783 123.711 44.8315 123.711 42.6541C123.711 39.2625 127.458 38.3832 131.645 38.3832V41.4398L131.624 41.4189ZM138.261 35.5778C138.261 30.0088 135.895 25.1098 127.877 25.1098C123.752 25.1098 120.466 26.2403 118.728 27.2871L120.047 31.7255C121.701 30.6788 124.234 29.7994 126.767 29.7994C130.892 29.7994 131.478 32.0605 131.478 33.547V33.9029C122.58 33.9029 117.011 36.9595 117.011 43.2403C117.011 47.0716 119.9 50.6517 124.841 50.6517C127.898 50.6517 130.41 49.4374 132.001 47.5113H132.169C132.169 47.5113 133.216 51.7822 138.805 50.1283C138.533 48.3906 138.449 46.4645 138.449 44.2034L138.282 35.5568M0 17.531L6.72044 45.0827C7.76724 49.6258 9.77709 51.2797 15.367 50.1492L18.947 35.4103L21.0406 25.4657H21.1244C21.564 29.2132 22.1712 31.8512 22.8621 35.494L25.1232 45.6898C25.8978 49.1861 28.0123 51.4472 33.4975 50.2329L42.1441 17.6147H35.1724L32.1995 31.7465L30.1059 42.8216H30.0222L28.0961 31.9977L25.0394 17.6147H17.7746L14.4667 31.6627L12.101 43.01H12.0172C11.3892 39.0531 10.6983 35.0962 9.92364 31.1393L7.30665 17.6147L0 17.531ZM55.3756 41.4189C55.3756 41.8586 55.3756 42.382 55.2081 42.7379C54.6847 44.3918 52.947 45.8783 50.7697 45.8783C48.9064 45.8783 47.4618 44.8315 47.4618 42.6541C47.4618 39.2625 51.2094 38.3832 55.3965 38.3832V41.4398L55.3756 41.4189ZM62.0123 35.5778C62.0123 30.0088 59.6465 25.1098 51.6281 25.1098C47.5037 25.1098 44.2167 26.2403 42.4791 27.2871L43.798 31.7255C45.452 30.6788 47.9852 29.7994 50.5185 29.7994C54.6429 29.7994 55.2291 32.0605 55.2291 33.547V33.9029C46.3313 33.9029 40.7623 36.9595 40.7623 43.2403C40.7623 47.0716 43.6515 50.6517 48.5924 50.6517C51.649 50.6517 54.1613 49.4374 55.7525 47.5113H55.9199C55.9199 47.5113 56.9667 51.7822 62.5566 50.1283C62.2845 48.3906 62.2007 46.4645 62.2007 44.2034V35.5568M73.0037 43.2613V17.531H66.367V50.1492H73.0037V43.2613" fill="#CFCFCF"/>
<path d="M159.784 17.531V41.6073C159.784 44.9152 160.391 47.281 161.71 48.6627C162.84 49.877 164.767 50.6726 167.111 50.6726C169.038 50.6726 171.026 50.3167 171.906 49.9817L171.822 44.8315C171.131 44.9989 170.336 45.1036 169.289 45.1036C167.028 45.1036 166.232 43.6172 166.232 40.6652V31.4115H171.989V25.1307H166.232V17.4472H159.784M142.595 25.6541V50.1701H149.4V37.6086C149.4 36.9177 149.4 36.2896 149.567 35.7453C150.09 33.1283 152.1 31.4743 154.969 31.4743C155.743 31.4743 156.371 31.5581 156.978 31.6418V25.1935C156.455 25.1098 156.099 25.026 155.492 25.026C152.959 25.026 150.007 26.68 148.771 30.1763H148.604V25.5494H142.595M77.7148 25.6541V50.1701H84.3515V35.7871C84.3515 35.0962 84.4353 34.3844 84.7075 33.7773C85.2309 32.2908 86.6336 30.6369 88.7272 30.6369C91.4279 30.6369 92.6422 32.898 92.6422 36.2058V50.1492H99.2789V35.5778C99.2789 34.9706 99.3626 34.1751 99.5511 33.5679C100.074 31.914 101.561 30.595 103.571 30.595C106.271 30.595 107.59 32.8561 107.59 36.7083V50.1492H114.227V35.6824C114.227 28.1036 110.396 25.047 106.02 25.047C104.324 25.047 102.671 25.4866 101.226 26.3659C100.095 27.0568 99.0486 28.1036 98.0855 29.4226H98.0018C96.955 26.8056 94.5055 25.0679 91.2813 25.0679C87.0942 25.0679 85.2727 27.1615 84.1213 28.9829H84.0375V25.6751H77.7567" fill="#CFCFCF"/>
</g>
<defs>
<clipPath id="clip0_344_201">
<rect width="238" height="67.0998" fill="white" transform="translate(0 0.489094)"/>
</clipPath>
</defs>
</svg>
