<svg width="93" height="93" viewBox="0 0 93 93" fill="none" xmlns="http://www.w3.org/2000/svg">
<g clip-path="url(#clip0_338_133)">
<path d="M36.7945 79.6619C18.689 75.9416 6.27205 59.2123 7.95218 40.8109C9.63231 22.4014 24.8655 8.19228 43.339 7.80825C61.8124 7.42422 77.6377 20.9773 80.0859 39.2907" stroke="black" stroke-width="5.60044"/>
<path d="M35.3544 79.334C30.45 72.1254 27.1617 59.0444 27.1617 44.0912C27.1617 29.138 30.442 16.057 35.3544 8.85645" stroke="black" stroke-width="5.60044"/>
<path d="M7.88013 41.6749H46.5152" stroke="black" stroke-width="5.60044"/>
<path d="M15.0568 22.3134H73.1413" stroke="black" stroke-width="5.60044"/>
<path d="M11.9845 61.0365H39.2586" stroke="black" stroke-width="5.60044"/>
<path d="M52.8438 8.85645C56.644 15.1849 59.0682 22.2415 59.9403 29.5701" stroke="black" stroke-width="5.60044"/>
<path d="M63.4606 56.1962C68.141 56.1962 71.9333 52.4039 71.9333 47.7235C71.9333 43.0432 68.141 39.2509 63.4606 39.2509C58.7802 39.2509 54.9879 43.0432 54.9879 47.7235C54.9879 52.4039 58.7802 56.1962 63.4606 56.1962V56.1962Z" stroke="#0077FF" stroke-width="5.60044"/>
<path d="M63.4605 58.6123C54.1078 58.6123 46.5232 66.1969 46.5232 75.5496V80.39H80.4059V75.5496C80.4059 71.0533 78.6217 66.7489 75.4455 63.5727C72.2692 60.3964 67.9569 58.6123 63.4685 58.6123H63.4605Z" stroke="#0077FF" stroke-width="5.60044"/>
</g>
<defs>
<clipPath id="clip0_338_133">
<rect width="78.1982" height="78.1902" fill="white" transform="translate(5 5)"/>
</clipPath>
</defs>
</svg>
