<svg width="93" height="93" viewBox="0 0 93 93" fill="none" xmlns="http://www.w3.org/2000/svg">
<g clip-path="url(#clip0_338_134)">
<path d="M55.9096 45.6137H35.641C35.641 40.014 40.1801 35.4839 45.7708 35.4839C51.3705 35.4839 55.9006 40.023 55.9006 45.6137H55.9096Z" stroke="#0077FF" stroke-width="6.29181"/>
<path d="M45.7708 35.4749C49.9684 35.4749 53.3749 32.0684 53.3749 27.8708C53.3749 23.6733 49.9684 20.2667 45.7708 20.2667C41.5733 20.2667 38.1667 23.6733 38.1667 27.8708C38.1667 32.0684 41.5733 35.4749 45.7708 35.4749Z" stroke="#0077FF" stroke-width="6.29181"/>
<path d="M17.9071 45.6138V10.146H73.6345V45.6138H17.9071Z" stroke="black" stroke-width="6.29181"/>
<path d="M20.4419 76.0121C24.6394 76.0121 28.046 72.6056 28.046 68.4081C28.046 64.2105 24.6394 60.804 20.4419 60.804C16.2443 60.804 12.8378 64.2105 12.8378 68.4081C12.8378 72.6056 16.2443 76.0121 20.4419 76.0121Z" stroke="black" stroke-width="6.29181"/>
<path d="M33.1064 86.1419C30.6076 81.468 25.7449 78.5378 20.4419 78.5378C15.1388 78.5378 10.2671 81.459 7.77734 86.1419" stroke="black" stroke-width="6.29181"/>
<path d="M71.1089 76.0121C75.3064 76.0121 78.713 72.6056 78.713 68.4081C78.713 64.2105 75.3064 60.804 71.1089 60.804C66.9113 60.804 63.5048 64.2105 63.5048 68.4081C63.5048 72.6056 66.9113 76.0121 71.1089 76.0121V76.0121Z" stroke="black" stroke-width="6.29181"/>
<path d="M83.7734 86.1419C81.2746 81.468 76.4119 78.5378 71.1088 78.5378C65.8058 78.5378 60.9341 81.459 58.4443 86.1419" stroke="black" stroke-width="6.29181"/>
<path d="M45.7708 76.0121C49.9684 76.0121 53.3749 72.6056 53.3749 68.4081C53.3749 64.2105 49.9684 60.804 45.7708 60.804C41.5733 60.804 38.1667 64.2105 38.1667 68.4081C38.1667 72.6056 41.5733 76.0121 45.7708 76.0121Z" stroke="black" stroke-width="6.29181"/>
<path d="M58.4444 86.1419C55.9456 81.468 51.083 78.5378 45.7799 78.5378C40.4768 78.5378 35.6051 81.459 33.1154 86.1419" stroke="black" stroke-width="6.29181"/>
</g>
<defs>
<clipPath id="clip0_338_134">
<rect width="81.5508" height="80.625" fill="white" transform="translate(5 7)"/>
</clipPath>
</defs>
</svg>
