<svg width="243" height="45" viewBox="0 0 243 45" fill="none" xmlns="http://www.w3.org/2000/svg">
<g clip-path="url(#clip0_324_2)">
<path d="M14.341 7.89679V43.8101H8.48313V7.89679H0V2.45618H22.8295V7.89679H14.341Z" fill="white"/>
<path d="M35.9767 17.5737H34.4238C30.5414 17.5737 28.867 19.845 28.867 23.7274V43.8049H23.1887V11.8373H28.867V14.9432C30.0026 13.1526 32.0944 11.7158 35.9767 11.7739V17.5737Z" fill="white"/>
<path d="M48.226 23.0725C51.4534 23.0725 53.7829 24.2081 54.8604 25.2223V22.5337C54.8604 18.4083 52.9483 16.0789 49.1821 16.0789C45.4159 16.0789 43.9211 18.5298 43.863 21.1603H38.5439C38.602 15.5454 42.0723 11.4781 49.2402 11.4781C57.3061 11.4781 60.4753 16.137 60.4753 23.194V43.8102H55.4573V41.3012C53.9625 43.0337 51.633 44.2909 48.226 44.2909C42.1304 44.2909 37.4082 40.1655 37.4082 33.5945C37.4082 27.4989 41.8294 23.0777 48.226 23.0777V23.0725ZM48.881 39.6267C52.3461 39.6267 54.9766 36.9962 54.9766 33.5892C54.9766 30.1822 52.3461 27.6151 48.8229 27.6151C45.2997 27.6151 42.9069 30.1822 42.9069 33.5892C42.9069 36.9962 45.3578 39.6267 48.881 39.6267Z" fill="white"/>
<path d="M92.089 39.093C90.4145 41.5439 86.4688 44.354 81.0334 44.354C71.4093 44.354 64.7169 37.6615 64.7169 27.8579C64.7169 18.0542 71.4727 11.3036 80.9119 11.3036C85.9934 11.3036 89.7542 13.4535 91.7879 15.9044V0.126587H97.4662V43.81H92.089V39.0877V39.093ZM81.213 39.2726C87.6097 39.2726 92.0309 34.4923 92.0309 27.8579C92.0309 21.2235 87.5463 16.385 81.213 16.385C74.8797 16.385 70.4533 21.2235 70.4533 27.8579C70.4533 34.4923 74.9378 39.2726 81.213 39.2726Z" fill="white"/>
<path d="M107.682 29.5271C108.099 35.5646 111.987 39.2674 118.019 39.2674C123.1 39.2674 125.969 36.7003 127.997 32.9341L132.36 35.2054C130.268 40.1073 125.546 44.3488 118.019 44.3488C108.395 44.3488 101.824 37.8941 101.824 27.9161C101.824 17.9381 108.279 11.3037 117.422 11.3037C126.566 11.3037 132.962 17.3412 133.078 26.96C133.078 27.5569 133.078 28.5763 132.957 29.5271H107.677H107.682ZM107.861 24.9264H127.162C126.803 19.6654 122.921 16.2003 117.364 16.2003C112.166 16.2003 108.58 19.5491 107.861 24.9264Z" fill="white"/>
<path d="M168.221 43.8101H160.091L163.081 26.5375H147.066L143.96 43.8101H135.83L143.12 2.45618H151.249L148.439 18.6512H164.513L167.381 2.45618H175.51L168.221 43.8101Z" fill="white"/>
<path d="M182.023 31.6189C181.426 35.0259 182.62 37.0595 185.488 37.0595C188.356 37.0595 189.793 34.9678 190.268 32.0415L193.797 11.8425H201.683L196.184 43.8154H188.536L188.953 41.5441C188.055 42.6797 185.668 44.1746 182.556 44.1746C175.563 44.1746 172.932 38.5544 174.131 31.7457L177.596 11.8425H185.483L182.018 31.6242L182.023 31.6189Z" fill="white"/>
<path d="M212.739 13.9922C213.753 13.0362 216.383 11.3036 220.868 11.3036C229.235 11.3036 234.85 17.04 234.85 26.5426C234.85 35.2106 229.589 44.354 217.699 44.354C212.739 44.354 209.633 42.3204 208.074 40.292L207.419 43.8205H199.533L207.24 0.126587H215.126L212.733 13.9922H212.739ZM209.992 28.9354C209.992 33.7158 213.04 37.1809 217.762 37.1809C223.62 37.1809 226.963 32.2209 226.905 26.6007C226.784 21.6989 223.799 18.3553 219.193 18.3553C213.399 18.3553 209.992 23.2571 209.992 28.9354Z" fill="white"/>
<path d="M239.133 0C241.516 0 243.005 1.65859 243.005 3.76089C243.005 5.86319 241.516 7.53763 239.17 7.53763C236.825 7.53763 235.357 5.90016 235.357 3.77674C235.357 1.65331 236.862 0 239.133 0V0ZM239.17 6.73474C241.03 6.73474 242.113 5.48815 242.113 3.75561C242.113 2.02306 241.014 0.797605 239.133 0.797605C237.253 0.797605 236.228 2.04419 236.228 3.77674C236.228 5.50928 237.327 6.73474 239.17 6.73474ZM238.816 4.10951V5.74698H237.887V1.65859H239.302C240.216 1.65859 240.681 2.12342 240.681 2.88405C240.681 3.38586 240.422 3.73976 240.105 3.90879L240.85 5.75226H239.883L239.213 4.11479H238.822L238.816 4.10951ZM238.816 2.47205V3.32775H239.281C239.54 3.32775 239.709 3.17985 239.709 2.87877C239.709 2.59882 239.54 2.46676 239.281 2.46676H238.816V2.47205Z" fill="white"/>
</g>
<defs>
<clipPath id="clip0_324_2">
<rect width="243" height="44.3489" fill="white"/>
</clipPath>
</defs>
</svg>
