<svg width="221" height="223" viewBox="0 0 221 223" fill="none" xmlns="http://www.w3.org/2000/svg">
<g clip-path="url(#clip0_338_247)">
<path d="M75.5176 88.8168V147.34H65.973V88.8168H52.145V79.9539H89.3406V88.8168H75.5127H75.5176Z" fill="white"/>
<path d="M144.455 147.339H131.21L136.081 119.199H109.986L104.922 147.339H91.6774L103.559 79.9536H116.804L112.229 106.345H138.423L143.096 79.9536H156.341L144.46 147.339H144.455Z" fill="white"/>
<path d="M169.932 75.957C173.815 75.957 176.241 78.6544 176.241 82.083C176.241 85.5116 173.815 88.2387 169.996 88.2387C166.177 88.2387 163.781 85.5709 163.781 82.1127C163.781 78.6544 166.237 75.957 169.937 75.957H169.932ZM169.991 86.9344C173.025 86.9344 174.783 84.9039 174.783 82.083C174.783 79.2621 172.995 77.2613 169.932 77.2613C166.869 77.2613 165.204 79.2917 165.204 82.1127C165.204 84.9336 166.992 86.9344 169.996 86.9344H169.991ZM169.418 82.661V85.3288H167.901V78.6594H170.209C171.696 78.6594 172.452 79.4153 172.452 80.6602C172.452 81.4803 172.027 82.0534 171.513 82.33L172.728 85.3337H171.152L170.06 82.666H169.423L169.418 82.661ZM169.418 79.9933V81.3864H170.174C170.599 81.3864 170.871 81.1444 170.871 80.6602C170.871 80.2057 170.599 79.9933 170.174 79.9933H169.418Z" fill="white"/>
<path d="M136.486 14.4899C135.31 15.2309 133.477 15.8534 131.259 15.3791C126.744 14.4108 124.407 10.5771 125.351 6.1852C126.284 1.81796 130.039 -0.755943 134.47 0.192597C136.367 0.597703 137.884 1.566 138.813 2.89001L137.262 4.14485C136.575 3.22595 135.468 2.41574 134.055 2.10944C130.785 1.40791 128.226 3.3544 127.519 6.64465C126.813 9.93984 128.522 12.7756 131.689 13.4573C133.359 13.813 134.678 13.3042 135.587 12.7904L136.481 14.4849L136.486 14.4899Z" fill="white"/>
<path d="M148.832 16.3867C148.209 17.7848 148.427 18.8767 149.672 19.43C150.912 19.9833 151.989 19.3756 152.601 17.9973L155.58 11.313L157.472 12.1578L152.774 22.7103L150.902 21.8754L151.332 20.9121C150.798 21.2628 149.785 21.5197 148.481 20.9417C146.13 19.8944 145.927 17.8688 146.861 15.7741L149.963 8.81323L151.836 9.64815L148.832 16.3917V16.3867Z" fill="white"/>
<path d="M168.45 23.6836C168.825 24.2023 169.245 24.6568 169.641 25.1904C170.634 26.5588 170.866 27.8235 169.809 29.3501C168.519 31.2126 166.4 31.1681 164.641 29.9528C162.245 28.2978 162.433 26.2772 163.599 24.6667L165.229 25.798C164.611 26.7317 164.414 27.7791 165.619 28.614C166.439 29.2068 167.452 29.2266 168.04 28.3719C168.578 27.5913 168.435 26.9639 167.897 26.2278C167.482 25.6547 167.027 25.2052 166.587 24.5135C165.713 23.1204 165.822 21.9396 166.607 20.8034C167.699 19.2225 169.645 19.0693 171.384 20.2747C173.37 21.6481 173.519 23.4563 172.343 25.1904L170.782 24.1084C171.389 23.1154 171.365 22.2015 170.441 21.5642C169.641 21.0108 168.82 21.0998 168.317 21.826C167.902 22.4287 167.961 23.0216 168.44 23.6984L168.45 23.6836Z" fill="white"/>
<path d="M185.37 31.9289L186.907 33.411L185.692 34.6708L184.155 33.1887L179.645 37.8622C178.938 38.5934 178.736 39.1121 179.511 39.8631L180.099 40.4312L178.869 41.7058C178.746 41.5872 178.311 41.3204 177.832 40.8561C176.29 39.374 176.532 38.1339 177.802 36.8099L182.673 31.7609L181.833 30.9507L183.049 29.691L183.888 30.5012L185.119 29.2266L186.591 30.6494L185.366 31.924L185.37 31.9289Z" fill="white"/>
<path d="M198.087 46.3992C200.117 49.2201 199.529 52.6981 196.728 54.7137C193.927 56.7294 190.375 56.1168 188.384 53.3502C186.368 50.5491 186.902 47.1106 189.757 45.0554C192.598 43.0151 196.111 43.6524 198.087 46.4041V46.3992ZM189.906 52.2831C191.24 54.1407 193.557 54.442 195.503 53.0439C197.43 51.6557 197.904 49.3239 196.585 47.4811C195.236 45.6038 192.914 45.3321 190.973 46.7351C189.026 48.1333 188.587 50.4453 189.911 52.2831H189.906Z" fill="white"/>
<path d="M200.063 74.2724L199.287 72.3753L206.14 69.5692C207.518 69.006 208.16 68.0674 207.661 66.8471C207.147 65.5873 205.952 65.3551 204.514 65.943L197.781 68.6997L197.005 66.8027L207.691 62.4255L208.466 64.3226L207.508 64.7129C208.106 64.8661 209.01 65.3107 209.563 66.6495C210.136 68.0476 209.85 69.1197 209.222 69.8656C210.176 70.0336 211.189 70.6215 211.762 72.0196C212.774 74.4947 211.505 76.1151 209.445 76.955L202.355 79.8599L201.58 77.9628L208.452 75.1468C209.83 74.5836 210.452 73.6549 209.944 72.4149C209.445 71.1946 208.264 70.9328 206.94 71.4515L200.068 74.2675L200.063 74.2724Z" fill="white"/>
<path d="M212.458 91.6476C212.35 92.28 212.33 92.8975 212.221 93.5496C211.944 95.2194 211.208 96.2668 209.38 96.5929C207.147 96.9831 205.695 95.4418 205.324 93.3372C204.821 90.4669 206.392 89.1824 208.353 88.881L208.699 90.8374C207.597 91.0548 206.713 91.6476 206.97 93.0902C207.123 94.093 207.824 94.8242 208.842 94.6464C209.776 94.4833 210.121 93.9399 210.265 93.0358C210.383 92.3343 210.383 91.7019 210.571 90.9016C210.947 89.3009 211.87 88.55 213.229 88.3079C215.121 87.9769 216.593 89.2515 216.959 91.3364C217.379 93.7176 216.193 95.0861 214.133 95.4714L213.807 93.599C214.943 93.3322 215.576 92.6752 215.378 91.5686C215.21 90.6101 214.573 90.0914 213.698 90.2396C212.972 90.3681 212.597 90.8275 212.453 91.6427L212.458 91.6476Z" fill="white"/>
<path d="M206.51 128.517C205.779 127.406 205.418 126.002 205.675 124.249C206.164 120.919 208.343 119.165 210.882 119.541C212.656 119.802 213.945 120.953 214.518 122.564C215.314 121.764 216.405 121.314 217.705 121.507C219.671 121.798 221.336 123.503 220.946 126.17C220.56 128.794 218.708 130.118 216.509 129.792C214.395 129.48 213.244 127.83 213.323 125.963L209.395 128.789C210.408 129.48 211.791 129.841 213.145 129.974L212.858 131.896C211.011 131.733 209.114 131.126 207.735 129.965L204.736 132.119L205.112 129.555L206.51 128.517ZM208.051 127.391L213.135 123.666C212.769 122.608 211.93 121.917 210.739 121.744C209.178 121.512 207.79 122.638 207.508 124.56C207.34 125.711 207.547 126.66 208.051 127.391ZM214.913 125.37C214.726 126.63 215.491 127.657 216.796 127.85C218.036 128.013 219.068 127.247 219.256 125.943C219.449 124.639 218.653 123.676 217.394 123.488C216.134 123.3 215.101 124.11 214.913 125.37V125.37Z" fill="white"/>
<path d="M206.821 162.428L195.325 156.42L196.303 154.543L207.799 160.555L209.222 157.838L210.961 158.747L207.142 166.054L205.399 165.145L206.821 162.428Z" fill="white"/>
<path d="M193.68 176.246L194.016 175.796C194.851 174.67 194.555 173.697 193.433 172.857L187.613 168.524L188.839 166.879L198.102 173.776L196.876 175.421L195.977 174.749C196.254 175.465 196.214 176.379 195.36 177.491L193.68 176.241V176.246Z" fill="white"/>
<path d="M182.48 185.686C181.641 186.491 180.751 186.778 180.213 186.783L180.885 187.484C181.917 188.561 182.999 188.69 183.977 187.746C184.99 186.773 184.733 185.79 184.091 185.093L185.479 183.764C186.867 185.241 186.981 187.168 185.114 188.961C183.014 190.982 181.023 190.557 179.254 188.719L174.097 183.349L175.406 182.094L176.033 182.747C175.989 181.922 176.28 181.013 177.17 180.158C178.76 178.631 181.018 178.528 182.663 180.237C184.185 181.823 184.14 184.085 182.475 185.681L182.48 185.686ZM178.168 181.536C177.263 182.406 177.239 183.749 178.088 184.634C178.953 185.538 180.267 185.533 181.186 184.649C182.12 183.749 182.08 182.5 181.23 181.61C180.376 180.726 179.081 180.652 178.163 181.531L178.168 181.536Z" fill="white"/>
<path d="M158.826 196.417C158.871 195.345 159.538 193.729 161.202 192.687C164.147 190.844 167.477 191.605 169.354 194.608C171.152 197.479 170.461 200.967 167.57 202.78C166.019 203.753 164.453 203.817 163.361 203.457L166.385 208.283L164.646 209.37L156.272 196.002L157.917 194.969L158.821 196.412L158.826 196.417ZM162.121 194.277C160.165 195.503 159.725 197.815 161 199.845C162.27 201.876 164.567 202.498 166.508 201.283C168.445 200.068 168.875 197.741 167.6 195.71C166.33 193.68 164.043 193.077 162.121 194.277V194.277Z" fill="white"/>
<path d="M146.925 205.956C146.05 203.956 144.282 203.165 142.232 203.891C140.502 204.504 139.84 205.729 139.603 207.256L137.845 207.009C137.963 205.087 139.055 203.071 141.619 202.162C144.894 200.996 147.908 202.399 149.118 205.793C150.289 209.089 148.931 212.226 145.823 213.332C142.632 214.469 139.806 213.159 138.6 209.899C138.526 209.696 138.403 209.35 138.329 209.009L146.93 205.951L146.925 205.956ZM147.424 207.542L140.858 209.879C141.614 211.623 143.358 212.334 145.25 211.662C147.019 211.035 147.834 209.459 147.429 207.542H147.424Z" fill="white"/>
<path d="M112.377 207.844L114.492 207.755L115.119 222.675L113.005 222.764L112.382 207.844H112.377Z" fill="white"/>
<path d="M94.4045 214.232C94.2168 215.753 94.7503 216.731 96.1435 216.904C97.512 217.072 98.3666 216.178 98.5494 214.676L99.4436 207.394L101.479 207.646L100.066 219.103L98.0307 218.851L98.1591 217.823C97.7787 218.253 96.8598 218.836 95.4271 218.658C92.8137 218.337 92.0727 216.42 92.3444 214.192L93.2781 206.633L95.3135 206.885L94.4094 214.232H94.4045Z" fill="white"/>
<path d="M74.6481 209.439C74.1739 210.897 74.5098 211.959 75.8437 212.394C77.1578 212.823 78.1607 212.102 78.63 210.669L80.9026 203.694L82.854 204.326L79.2772 215.303L77.3307 214.671L77.6518 213.688C77.1973 214.039 76.1846 214.434 74.8112 213.989C72.3064 213.174 71.9458 211.149 72.6374 209.014L74.994 201.772L76.9404 202.404L74.6481 209.444V209.439Z" fill="white"/>
<path d="M54.6893 205.047C51.6757 203.313 50.7766 199.904 52.5007 196.911C54.2249 193.917 57.7078 193.013 60.6671 194.712C63.6609 196.436 64.5946 199.791 62.8408 202.839C61.0919 205.867 57.6288 206.737 54.6942 205.047H54.6893ZM59.7185 196.313C57.7375 195.172 55.4995 195.853 54.3039 197.928C53.1183 199.988 53.6469 202.31 55.6131 203.442C57.614 204.593 59.842 203.886 61.0376 201.806C62.2331 199.731 61.6798 197.444 59.7185 196.313Z" fill="white"/>
<path d="M42.6447 184.98L34.1128 189.52L32.5171 188.097L43.4895 182.406L45.1643 183.898L40.8119 195.493L39.1223 193.986L42.6398 184.975L42.6447 184.98Z" fill="white"/>
<path d="M26.0799 174.502C25.3734 173.578 25.1857 172.659 25.24 172.126L24.4693 172.713C23.2886 173.618 23.0366 174.68 23.8617 175.757C24.7163 176.868 25.7192 176.725 26.485 176.167L27.6509 177.693C26.0305 178.909 24.1037 178.81 22.5278 176.75C20.7591 174.438 21.3964 172.506 23.422 170.96L29.3355 166.434L30.4372 167.872L29.7159 168.42C30.541 168.47 31.4154 168.86 32.1614 169.838C33.5002 171.587 33.352 173.845 31.4648 175.287C29.7159 176.626 27.478 176.325 26.0749 174.492L26.0799 174.502ZM30.6793 170.683C29.9185 169.69 28.5895 169.512 27.6114 170.258C26.6184 171.019 26.4751 172.323 27.2458 173.336C28.0313 174.364 29.2812 174.467 30.2544 173.721C31.2326 172.975 31.45 171.691 30.6744 170.683H30.6793Z" fill="white"/>
<path d="M12.4743 160.747L11.4763 158.86L13.0227 158.045L14.0206 159.932L19.7612 156.899C20.6604 156.425 21.0161 155.995 20.5122 155.036L20.1268 154.31L21.6929 153.485C21.772 153.638 22.098 154.029 22.4093 154.616C23.4072 156.504 22.7946 157.61 21.1742 158.465L14.9741 161.74L15.5175 162.768L13.9712 163.583L13.4278 162.551L11.8617 163.376L10.9082 161.563L12.4693 160.737L12.4743 160.747Z" fill="white"/>
<path d="M4.56482 149.118C3.83365 149.38 3.08273 149.009 2.82583 148.298C2.56893 147.587 2.90981 146.801 3.64098 146.539C4.35239 146.287 5.13296 146.673 5.38985 147.384C5.64181 148.096 5.28117 148.866 4.56482 149.123V149.118ZM16.9699 142.133L17.6616 144.064L6.78796 147.957L6.09632 146.026L16.9699 142.133Z" fill="white"/>
<path d="M1.39819 128.443C0.820177 125.019 2.87535 122.154 6.28416 121.581C9.68804 121.008 12.6028 123.117 13.171 126.482C13.744 129.886 11.7531 132.741 8.28499 133.324C4.83665 133.902 1.96139 131.783 1.39819 128.443V128.443ZM11.3381 126.768C10.9577 124.511 9.01122 123.221 6.64975 123.621C4.30804 124.017 2.85559 125.904 3.23105 128.137C3.61639 130.414 5.5777 131.679 7.93917 131.284C10.3006 130.884 11.7136 129.006 11.3381 126.773V126.768Z" fill="white"/>
<path d="M4.39194 103.998C2.86044 103.934 1.93166 104.547 1.87238 105.945C1.8131 107.328 2.77646 108.099 4.28819 108.163L11.6196 108.464L11.5356 110.514L0 110.045L0.0839853 107.995L1.11651 108.039C0.657062 107.694 0 106.829 0.0592838 105.382C0.167971 102.753 2.01565 101.854 4.25855 101.948L11.8716 102.259L11.7876 104.309L4.39194 104.008V103.998Z" fill="white"/>
<path d="M8.83334 73.4623C9.52992 72.7756 10.1376 72.0148 10.933 71.2935C12.2175 70.0683 13.7045 69.6088 15.5423 70.2955C17.968 71.1996 19.0054 73.5463 18.0421 76.135C16.8317 79.3907 14.3171 79.697 12.01 78.7929L12.7263 76.8711C14.2232 77.4294 15.6806 77.2367 16.3278 75.4928C16.8169 74.1786 16.4118 72.9238 14.9741 72.3853C13.8626 71.9703 13.0178 72.3211 12.2323 73.0671C11.4072 73.7933 10.7897 74.648 9.93997 75.389C8.78394 76.387 7.38089 76.6933 5.72094 76.0757C3.68059 75.3149 2.62831 73.1955 3.53238 70.7698C4.63407 67.8155 6.9165 67.4944 8.93709 68.3145L8.26026 70.1325C6.95108 69.6879 5.74564 70.0238 5.23185 71.3972C4.75264 72.6916 5.30101 73.6797 6.39282 74.0897C7.3463 74.4454 8.09229 74.1688 8.83828 73.4573L8.83334 73.4623Z" fill="white"/>
<path d="M21.4361 58.6711C22.7403 59.4764 23.8519 59.3974 24.5633 58.2413C25.2747 57.0804 24.8153 55.9392 23.5308 55.1438L17.301 51.3101L18.3879 49.5464L28.2241 55.5983L27.1471 57.3422L26.243 56.7889C26.5246 57.3669 26.6481 58.4044 25.8972 59.6147C24.5485 61.8033 22.5131 61.7391 20.5616 60.5386L14.0701 56.5468L15.1471 54.7979L21.4361 58.6662V58.6711Z" fill="white"/>
<path d="M40.1401 41.2715L38.7074 42.7387L33.4114 37.5613C32.3443 36.5189 31.2278 36.3015 30.3089 37.2451C29.3554 38.2183 29.6172 39.404 30.7288 40.4909L35.926 45.5794L34.4933 47.0467L26.238 38.9693L27.6707 37.502L28.4118 38.2282C28.313 37.6206 28.3624 36.6127 29.3751 35.5753C30.4324 34.4933 31.5291 34.3303 32.4628 34.6119C32.2356 33.6683 32.3788 32.5073 33.4361 31.4254C35.3085 29.5135 37.2994 30.0421 38.8902 31.5934L44.369 36.9536L42.9363 38.4209L37.6255 33.2286C36.5633 32.1862 35.4616 31.9837 34.5229 32.9421C33.5991 33.8857 33.8264 35.0714 34.8342 36.0841L40.1401 41.2764V41.2715Z" fill="white"/>
<path d="M59.4962 26.2331L57.7424 27.3002L53.8988 20.9716C53.1232 19.697 52.1006 19.2129 50.9692 19.8946C49.8082 20.6011 49.7638 21.8164 50.5691 23.1454L54.3435 29.3652L52.5946 30.4274L46.597 20.5566L48.3509 19.4895L48.8894 20.3739C48.9437 19.7563 49.2451 18.793 50.4801 18.042C51.7745 17.2565 52.8762 17.3701 53.716 17.8741C53.7309 16.9058 54.1557 15.8139 55.4452 15.0284C57.7325 13.6402 59.5308 14.6431 60.6819 16.5451L64.6638 23.096L62.91 24.1631L59.0516 17.8148C58.2759 16.5402 57.2632 16.0708 56.117 16.7674C54.9906 17.4492 54.9165 18.6596 55.6378 19.8897L59.4913 26.238L59.4962 26.2331Z" fill="white"/>
<path d="M69.283 5.95272C69.0113 5.2265 69.3769 4.47063 70.0833 4.20385C70.7898 3.94201 71.5802 4.26808 71.852 4.99924C72.1138 5.70571 71.7334 6.49122 71.0269 6.75305C70.3205 7.01489 69.5448 6.65919 69.278 5.95272H69.283ZM76.397 18.2739L74.4753 18.9853L70.4637 8.16104L72.3855 7.44964L76.397 18.2739Z" fill="white"/>
<path d="M86.747 3.37883L88.8367 2.92926L89.2072 4.63861L87.1175 5.08817L88.486 11.4365C88.6984 12.4295 89.0195 12.8889 90.0767 12.6617L90.8771 12.4888L91.2476 14.2179C91.0796 14.2525 90.6152 14.4649 89.9631 14.6032C87.8734 15.0528 86.9792 14.1635 86.5938 12.3702L85.1167 5.51304L83.9804 5.76006L83.6099 4.05071L84.7511 3.80369L84.3756 2.07458L86.3814 1.64478L86.7519 3.37389L86.747 3.37883Z" fill="white"/>
<path d="M109.29 7.0003C110.588 7.0003 111.641 5.94746 111.641 4.64871C111.641 3.34996 110.588 2.29712 109.29 2.29712C107.991 2.29712 106.938 3.34996 106.938 4.64871C106.938 5.94746 107.991 7.0003 109.29 7.0003Z" fill="white"/>
</g>
<defs>
<clipPath id="clip0_338_247">
<rect width="221" height="222.764" fill="white"/>
</clipPath>
</defs>
</svg>
